<svg width="165" height="69" viewBox="0 0 165 69" fill="none" xmlns="http://www.w3.org/2000/svg">
<path d="M2.66618 64.8957C4.32112 64.5211 6.4993 64.1406 8.17193 63.868C8.68878 63.784 8.45057 63.9422 8.81346 63.8875C9.52059 63.7807 10.1543 63.5922 10.8631 63.4893C11.0937 63.4566 10.8477 63.6816 11.0869 63.6439C12.4154 63.432 13.6568 63.1133 14.9885 62.8497C21.5729 61.5433 28.0329 60.0378 34.6481 58.4774C35.5214 58.2707 36.3959 58.0828 37.3656 57.8693C38.8361 57.5474 40.3782 57.2031 41.7642 56.8117C42.021 56.7388 41.8307 56.6347 41.877 56.6105C42.6067 56.2347 42.4219 56.5882 42.9423 56.4976C45.0231 56.1333 47.2674 55.5775 49.2197 55.021C50.0397 54.7865 49.1377 54.7144 50.0128 54.6607C50.0737 54.6567 49.9016 54.8621 50.1335 54.8202C50.6586 54.7249 51.6434 54.4443 52.0396 54.3557C52.815 54.1827 52.9428 54.1483 53.678 53.9617C54.6755 53.7098 55.8824 53.4801 56.9458 53.1697C57.1712 53.1033 56.83 53.0255 57.1861 52.9056C57.542 52.7858 58.5116 52.5499 58.8488 52.5019C59.1856 52.4541 59.0778 52.6122 59.1429 52.6252C59.6762 52.7396 60.7049 52.1247 60.8475 52.0792C63.4318 51.2637 65.7237 50.8672 68.1816 50.226C70.0474 49.7387 72.0251 49.1558 73.801 48.6989C75.9179 48.1549 77.7294 47.768 79.7793 47.2113C79.9955 47.1528 79.6936 47.0374 79.9576 46.9655C82.7638 46.2015 85.5546 45.4821 88.3873 44.8579C88.6706 44.7957 88.3525 45.052 88.6381 44.9994C90.3879 44.6735 93.1897 44.2607 94.0185 43.2906C95.1819 43.0068 96.6064 42.6526 97.6792 42.5129C98.3767 42.4211 97.7712 42.772 98.5757 42.4743C98.7568 42.4075 98.4742 42.3203 98.7488 42.2317C99.8941 41.8614 101.206 41.5578 102.329 41.1668C102.557 41.087 102.459 40.9671 102.519 40.9244C103.032 40.5703 104.055 40.6444 104.263 40.613C105.864 40.3662 106.956 39.9902 108.419 39.5905C108.754 39.499 108.308 39.4251 108.628 39.3305C110.278 38.8458 112.027 38.376 113.679 37.9996C114.043 37.9173 113.757 38.1659 113.933 38.1346C114.714 37.9931 114.817 37.6462 115.563 37.5042C115.72 37.4738 115.671 37.6317 115.703 37.6384C116.204 37.7453 116.494 37.3107 116.61 37.2701C117.248 37.0417 117.794 36.933 118.32 36.8443C119.007 36.7248 119.651 36.6398 120.402 36.3937C120.57 36.3386 120.14 36.2803 120.613 36.136C123.709 35.1879 126.994 34.2635 130.07 33.4252C130.555 33.2919 130.254 33.5272 130.289 33.533C130.859 33.6162 131.044 33.1975 131.204 33.1315C132.386 32.6476 133.622 32.5233 134.282 31.8546C135.846 31.3345 137.376 30.7613 138.796 30.0503C139.492 29.6961 140.21 29.2827 140.665 28.8177C140.895 28.5831 140.993 28.367 140.98 28.2355C140.983 28.0959 140.842 27.8362 140.604 27.5896C139.242 26.1516 137.491 25.0204 135.694 24.0212C135.635 23.989 135.815 23.8881 135.697 23.8244C134.241 23.0695 134.426 23.4485 133.316 23.359C133.044 23.34 132.395 22.7051 132.331 22.6557C132.114 22.4731 132.453 22.3241 132.375 22.2768C131.723 21.8955 131.581 22.7117 130.638 22.4278C130.609 22.4177 130.776 22.309 130.701 22.271C130.468 22.1524 130.204 22.1394 129.973 22.0207C129.441 21.7484 129.35 21.3065 128.421 21.3148C128.304 21.3181 128.359 21.8085 127.504 21.5842C127.162 21.4901 125.631 21.1691 125.203 21.0585C124.779 20.9444 125.103 20.8544 125.073 20.8419C123.946 20.4232 124.402 20.4274 123.867 20.0298C123.328 19.6361 123.371 20.3561 123.119 20.392C122.867 20.427 122.034 20.1246 121.83 20.0359C121.627 19.9464 121.906 19.8929 121.723 19.8316C120.503 19.4324 121.123 20.0928 120.695 20.1416C119.689 20.262 119.001 19.6469 118.117 19.4863C117.878 19.4432 118.061 19.5848 117.843 19.5695C116.983 19.5089 116.492 19.2899 115.504 19.3352C115.347 19.3427 114.524 19.5727 114.042 19.2965C113.974 19.2567 114.189 19.1471 113.831 19.0838C113.284 18.9876 112.318 18.8728 111.719 18.8659C111.285 18.8615 111.76 19.1155 111.226 19.0044C110.99 18.9552 111.444 18.8673 110.997 18.7852C110.537 18.7015 109.388 18.6171 108.946 18.5882C108.512 18.5597 108.737 18.7392 108.701 18.7474C108.486 18.7936 107.623 18.8075 107.557 18.8024C105.712 18.669 103.942 18.5047 102.173 18.2192C102.026 18.1951 101.899 18.1721 101.79 18.1499C101.736 18.1389 101.686 18.128 101.64 18.1172C101.58 18.1039 101.476 18.0793 101.411 18.0577C101.376 18.046 101.342 18.0339 101.304 18.0157C101.294 18.0111 101.284 18.006 101.274 18.0002C101.249 17.9811 101.163 17.961 101.082 17.7977C101.041 17.7157 101.039 17.5761 101.083 17.4863C101.126 17.3947 101.18 17.3516 101.218 17.3242C101.289 17.2743 101.361 17.2579 101.352 17.2599C101.426 17.2384 101.488 17.231 101.566 17.2225C101.769 17.2034 101.796 17.2078 101.933 17.2025C102.206 17.1949 102.394 17.1968 102.636 17.1975C102.894 17.1984 103.104 17.2015 103.33 17.2045C104.286 17.2176 105.163 17.2321 106.129 17.2275C106.434 17.2267 106.234 17.0519 106.281 17.0501C107.24 16.9987 106.468 17.4362 107.15 17.6034C107.046 17.2545 107.501 17.3273 108.165 17.3064C108.495 17.2963 108.319 17.1576 108.35 17.1446C108.847 16.9537 109.201 17.2271 109.291 17.2834C109.615 17.4907 109.965 17.2667 110.187 17.4057C110.407 17.5438 109.884 17.723 110.555 17.7406C110.748 17.6224 110.255 17.2831 110.771 17.2462C112.684 17.1041 116.241 17.4844 117.776 17.5694C119.312 17.6537 119.8 17.6502 120.694 17.7301C122.313 17.8754 121.719 17.6112 122.727 17.5416C123.738 17.4726 123.225 18.044 123.365 18.177C123.502 18.3098 123.664 18.1855 123.835 18.2625C124.007 18.3395 123.625 18.4103 124.035 18.4535C124.444 18.4965 125.585 18.3177 125.738 18.1911C126.061 17.9227 125.565 17.6056 126.652 17.7557C126.714 17.7645 126.504 17.9113 126.743 17.9372C128.652 18.1383 130.639 18.2329 132.542 18.4249C132.803 18.4515 132.562 18.6139 132.713 18.6313C134.304 18.8143 133.747 18.4969 134.633 18.213C134.42 18.6351 134.881 18.9203 136.097 18.9796C136.823 19.0153 136.706 18.8212 137.179 18.7105C137.318 18.6769 137.832 18.8308 137.929 18.7467C138.251 18.4721 137.785 18.125 139.022 18.3135C139.076 18.3223 138.895 18.4724 139.082 18.491C140.287 18.612 140.476 18.3178 141.775 18.3451C142.827 18.3681 144.663 18.6459 145.815 18.7362C145.768 19.2194 146.906 19.1677 147.358 18.8571C148.124 18.9116 148.945 18.9373 149.686 19.0249C149.946 19.0552 149.767 19.1859 149.799 19.2028C150.287 19.4686 150.626 19.162 150.786 19.1584C151.356 19.1515 151.92 19.1827 152.405 19.2199C153.546 19.3061 154.548 19.4328 155.744 19.3565C155.809 19.3528 155.911 19.0219 156.365 19.304C156.393 19.3233 155.808 19.431 156.622 19.5071C157.417 19.582 158.908 19.8947 160.043 19.8847C160.323 19.882 161.045 19.7035 161.56 20.0144C161.63 20.0564 161.532 20.1368 161.628 20.209C161.919 20.438 162.198 20.1458 162.513 20.5213C162.681 20.7138 162.944 20.9114 163.266 21.1083C163.575 21.3124 164.018 21.4941 164.125 21.8381C164.136 21.8342 164.402 22.1408 164.188 22.474C163.867 22.9781 163.229 23.4545 162.774 23.8315C162.553 24.0127 162.8 24.0278 162.763 24.0616C161.842 24.8724 160.991 25.4112 160.062 25.9971C159.556 26.3134 159 26.6563 158.393 27.0433C158.073 27.2479 157.322 28.035 156.619 28.2907C155.853 28.5676 156.068 27.4334 154.668 28.6079C154.103 29.0797 153.905 30.4666 152.507 30.7436C150.446 32.2677 148.313 33.3334 146.266 34.8931C146.174 34.9631 146.027 35.4063 145.797 35.551C145.455 35.7652 145.196 35.7711 144.949 35.9201C143.916 36.5413 143.051 37.239 142.065 37.8531C141.69 38.0871 141.743 37.8854 141.299 38.1625C140.848 38.4433 140.66 38.7846 140.008 39.0974C139.521 39.3292 138.86 39.303 138.236 39.6503C138.411 39.9816 138.002 40.2347 137.314 40.7914C137.184 40.8975 137.405 40.9107 137.347 40.9665C137.116 41.1939 136.799 41.2682 136.582 41.4933C136.529 41.548 136.594 41.6575 136.555 41.7082C136.217 42.1466 135.346 42.3609 135.192 42.3993C134.622 42.5372 134.479 42.8244 134.081 42.9882C133.678 43.1555 134.176 42.7291 133.721 42.9637C133.538 43.0578 133.352 43.1598 133.164 43.2657C132.364 43.7198 131.497 44.2815 130.772 44.7297C130.411 44.9532 130.747 44.9444 130.697 44.9797C129.979 45.4797 129.132 45.7894 128.898 46.3295C127.925 45.8929 128.492 46.6825 127.328 47.1652C127.232 47.2045 126.92 46.9067 127.211 46.6654C127.507 46.4206 128.059 46.2417 128.455 45.8888C128.554 45.803 128.954 45.1014 129.019 45.0333C129.567 44.4778 129.983 44.9487 130.037 44.9551C130.61 45.032 131.137 44.2076 131.306 44.0664C131.879 43.5981 132.418 43.2734 132.947 42.9218C133.17 42.7728 133.392 42.6182 133.608 42.4467C134.049 42.0946 133.891 41.7136 134.27 41.4871C135.549 40.7224 136.299 40.9163 137.217 39.7462C137.418 39.4929 136.918 39.286 138.022 38.994C138.089 38.9768 138.939 38.812 139.218 38.3922C139.253 38.3394 139.182 38.2315 139.24 38.181C139.636 37.8434 139.98 37.7451 140.425 37.4C140.87 37.0548 141.398 36.6269 141.957 36.3183C142.295 36.131 142.842 36.0649 143.029 36.0144C143.559 35.8738 143.876 35.3363 144.259 35.3333C144.646 35.3297 144.282 35.9401 145.072 35.5873C144.915 35.288 144.788 34.959 144.647 34.6476C146.223 33.6388 147.823 32.7251 149.386 31.6821C149.579 31.5526 149.281 31.532 149.485 31.3894C150.349 30.7875 151.186 30.3903 152.069 29.7445C152.747 29.2469 153.418 28.571 154.12 28.0435C154.785 28.0626 155.799 27.2248 156.602 26.7224C156.888 26.5433 156.926 26.6413 157.14 26.5364C157.946 26.1373 157.412 26.0899 157.583 25.9083C158.23 25.2202 158.712 25.5917 159.501 25.1925C159.607 25.1378 159.718 25.0705 159.833 24.9872C159.884 24.9516 160.305 24.1519 160.37 24.0727C160.837 23.5301 160.55 24.1194 160.915 23.8916C161.575 23.472 162.094 23.215 162.642 22.5573C162.804 22.3713 163.027 21.7485 163.201 21.7671C163.227 21.7722 163.354 21.8199 163.363 21.8164C163.392 21.7997 163.394 21.947 163.404 21.9923C163.408 22.0435 163.368 22.0588 163.317 22.0884C163.206 22.1391 163.079 22.2245 162.891 22.2219C162.507 22.2025 161.768 21.7401 161.603 21.6243C161.211 21.3243 161.963 21.5996 161.989 21.5882C162.32 21.4022 161.719 21.3034 161.237 21.2015C161.237 20.775 160.555 20.6945 160.745 21.1004C160.773 21.1452 161.136 21.1638 161.237 21.2015C160.762 21.5335 160.008 21.4754 159.229 21.0027C158.842 20.7805 159.264 20.6093 158.036 20.5653C157.5 20.5501 157.683 20.8556 157.187 20.8908C156.08 20.9741 154.672 20.6052 153.515 20.5738C153.109 20.5633 153.494 20.7456 153.215 20.7438C152.91 20.7421 152.615 20.7145 152.317 20.6834C151.922 20.6406 151.512 20.5897 151.044 20.5985C150.972 20.6 151.138 20.7747 150.891 20.7626C149.126 20.6804 147.581 20.4914 145.698 20.3903C144.824 20.3433 143.189 20.3512 142.26 20.2868C140.643 20.1754 138.673 19.8403 137.276 19.8327C136.379 19.8278 136.567 20.0017 136.176 20.0958C135.416 20.2782 134.119 19.8281 133.944 19.7597C133.939 19.7574 134.715 19.7541 134.306 19.6506C134.073 19.4634 133.953 19.7593 133.944 19.7597C133.829 19.7152 132.278 19.6073 131.971 19.6253C131.803 19.635 131.889 19.7952 131.802 19.7973C129.722 19.844 127.645 19.7933 125.547 19.6321C125.51 19.6274 125.574 19.4552 125.487 19.4463C124.269 19.3175 123.489 19.4994 122.475 19.5853C121.472 19.6717 120.671 19.5976 120.09 19.2747C119.341 19.2832 118.244 19.1086 117.629 19.0051C117.013 18.9016 116.915 19.2384 116.857 19.243C115.12 19.3946 114.146 19.1653 112.366 19.0763C111.521 19.0333 109.845 19.0312 108.928 19.0438C108.184 19.0536 107.799 18.964 107.099 18.9986C107.008 19.0034 107.097 19.1568 107.069 19.162C106.327 19.3266 106.692 18.9647 106.543 18.8952C106.012 18.6439 105.638 18.5072 104.697 18.6079C104.45 18.6306 103.876 19.1577 103.439 19.189C102.93 19.2297 103.159 19.0361 102.594 19.0899C102.553 19.0947 102.546 19.2113 102.271 19.2142C102.126 19.2169 102.006 19.2206 101.922 19.2241C101.888 19.225 101.824 19.2295 101.811 19.2301C101.806 19.2299 101.815 19.2288 101.856 19.2195C101.876 19.2146 101.905 19.2076 101.949 19.194C101.96 19.1906 101.971 19.1867 101.985 19.1823C102.03 19.1664 102.123 19.1358 102.26 19.0577C102.394 18.9736 102.621 18.8508 102.856 18.4594C103.11 18.0829 103.135 17.3329 102.919 16.9486C102.721 16.549 102.515 16.4108 102.393 16.3167C102.329 16.2715 102.278 16.2416 102.235 16.2185C102.216 16.2084 102.214 16.2075 102.204 16.2025C102.171 16.1856 102.144 16.1733 102.121 16.1634C102.074 16.1438 102.044 16.1337 102.023 16.1268C101.981 16.1137 101.973 16.1136 101.98 16.1159C102.007 16.1239 102.051 16.134 102.089 16.1425C102.174 16.161 102.298 16.184 102.455 16.2093C103.423 16.3682 104.544 16.4841 105.614 16.5614C105.829 16.577 105.567 16.3691 105.88 16.3886C107.374 16.4811 109.028 16.6063 110.492 16.8114C110.853 16.8624 110.615 16.9747 110.691 17.0198C111.166 17.2936 111.863 17.0093 111.981 17.013C114.705 17.0837 116.725 17.5953 119.499 17.8089C119.651 17.819 120.854 17.6141 121.325 18.0035C121.358 18.0294 121.816 18.4226 122.299 18.2769C122.33 18.2679 122.038 18.0537 122.589 18.1588C123.14 18.264 124.05 18.3063 124.777 18.6275C125.009 18.729 125.51 19.1488 126.277 19.0462C126.326 19.0362 127.554 18.7071 127.864 19.1901C127.912 19.2697 127.753 19.6612 128.647 19.6543C128.82 19.6535 128.546 19.4889 128.991 19.5383C129.672 19.6141 130.509 19.9539 131.364 20.0119C131.509 20.0194 132.202 19.9289 132.612 20.2925C132.676 20.3492 132.491 20.4367 132.737 20.534C133.911 21.0019 135.181 21.3816 136.332 22.0143C136.735 22.2383 136.427 22.3444 136.826 22.6041C137.241 22.8693 138.047 23.3644 138.54 23.5407C139.027 23.7132 138.74 23.1089 139.409 23.4934C140.488 24.1287 141.505 24.9129 142.395 25.865C142.839 26.3488 143.624 27.2875 143.406 28.706C143.131 30.0112 142.403 30.5317 141.917 30.9453C140.889 31.7212 139.934 32.134 138.986 32.5677C138.546 32.7606 138.943 32.7286 138.311 33.0058C135.907 34.0631 131.827 35.5238 129.675 35.9076C127.932 36.2218 129.982 35.4046 128.689 35.714C128.081 35.8584 127.509 36.4746 127.381 36.5274C125.981 37.0953 124.9 37.222 123.635 37.6549C123.369 37.7455 123.682 37.8318 123.454 37.9073C122.654 38.1735 121.854 38.3271 121.086 38.5639C120.743 38.6699 120.852 38.7744 120.543 38.8531C120.016 38.9881 119.517 39.097 118.989 39.1832C118.79 39.2144 118.587 39.2421 118.376 39.2663C118.308 39.2742 118.702 38.9928 118.158 39.1416C117.265 39.3865 116.146 39.578 115.151 39.9879C114.855 40.1102 114.921 40.4017 114.224 40.3833C114.077 40.38 114.156 39.9856 113.482 40.4961C113.366 40.582 112.204 41.3406 111.512 41.2535C111.329 41.231 110.829 41.0656 110.472 41.2124C110.424 41.2333 110.668 41.3322 110.366 41.4321C109.339 41.7715 108.187 42.072 107.129 42.4152C106.841 42.5085 107.319 42.5492 106.889 42.6832C105.693 43.0558 104.209 43.4183 103.013 43.6906C102.581 43.7884 102.84 43.5752 102.805 43.5693C102.24 43.471 102.028 43.869 101.866 43.933C100.85 44.3284 100.021 44.3935 99.0721 44.693C98.8095 44.7753 99.0387 44.8755 98.9895 44.9033C98.4764 45.1835 98.8118 44.8014 98.4559 44.8656C97.4586 45.0446 96.3925 45.3454 95.407 45.6314C95.0501 45.7354 95.5004 45.8022 95.18 45.8933C93.2799 46.4372 91.2804 46.9551 89.386 47.3572C89.0299 47.4324 89.2148 47.2384 89.1334 47.2271C88.5714 47.1459 87.9079 47.6381 87.7442 47.7117C86.9996 48.0472 86.6719 48.0065 85.9925 48.211C82.6772 49.2116 78.5246 50.2233 75.3521 51.0037C71.2182 52.0215 67.9889 52.7264 64.0683 53.7793C63.819 53.8461 64.1176 53.9608 63.9033 54.0206C61.1352 54.7847 58.3845 55.4197 55.6065 56.1887C55.3795 56.2512 55.7519 56.3376 55.3892 56.4436C54.6537 56.6601 53.6804 56.8998 52.9109 57.0386C52.5344 57.1069 52.9926 56.8335 52.6147 56.9052C51.7414 57.0702 50.7841 57.3017 49.9082 57.5542C49.5342 57.6624 50.1474 57.6921 49.6582 57.819C46.2959 58.6943 42.9869 59.564 39.5164 60.1928C39.2774 60.2362 38.9814 59.9325 38.5058 60.1239C38.4934 60.2318 38.5245 60.3474 38.5347 60.4569C38.3703 60.5 38.2066 60.5427 38.0437 60.585C33.2976 61.8159 28.5674 62.857 23.7981 63.9732C23.5915 64.0216 23.9991 64.1242 23.5894 64.2211C21.2411 64.7763 19.0029 65.3548 16.5493 65.7143C16.3065 65.75 16.3534 65.3894 15.6684 65.597C15.5374 65.6365 14.5073 65.9143 14.24 66.0494C14.2054 66.0686 14.4327 66.1814 14.0931 66.2616C12.1317 66.7223 10.0279 67.1381 8.03063 67.4509C7.70595 67.5015 8.01495 67.2644 7.78202 67.2993C6.14433 67.545 4.41418 68.0198 2.83498 68.1691C1.7806 68.2677 2.10911 67.905 1.50425 67.7275C1.41846 67.7026 0.778079 67.8193 0.712915 67.6606C0.548077 67.2618 0.770684 66.7476 0.558321 66.3296C0.512975 66.2396 -0.32374 66.5069 0.139063 66.1791C0.171397 66.1569 0.778243 65.9609 0.915458 65.8534C1.01145 65.7789 0.787355 65.648 0.991151 65.537C1.1956 65.4259 1.45994 65.5209 1.8044 65.37C2.15035 65.2176 1.95044 65.0585 2.66618 64.8957ZM114.834 18.5437C114.25 18.3598 114.144 18.9546 114.785 18.8338C114.816 18.8273 114.864 18.5527 114.834 18.5437ZM148.061 33.1065C148.839 32.9135 149.061 32.3041 148.502 32.4264C147.942 32.5495 147.825 33.1653 148.061 33.1065ZM141.579 37.5419C142.438 37.2357 142.094 36.4481 141.389 37.1065C141.348 37.1445 141.529 37.5598 141.579 37.5419ZM4.03541 67.1515C4.02723 67.145 3.56425 67.228 3.55477 67.2378C3.34594 67.4724 4.27017 67.3067 4.03541 67.1515ZM135.13 41.9215C135.428 41.8678 136.023 41.3319 135.658 41.3955C135.364 41.4463 134.762 41.9867 135.13 41.9215ZM118.128 19.1936C118.136 19.2034 118.467 19.2526 118.467 19.2019C118.465 19.0378 117.996 19.0262 118.128 19.1936ZM123.767 48.5958C125.546 47.9311 126.944 47.8906 124.958 48.8129C124.597 48.9665 125.627 48.2477 125.15 48.4056C124.296 48.6886 123.863 49.3187 122.898 49.3527C122.732 49.3607 123.674 48.6381 123.77 48.5937C123.769 48.5944 123.768 48.5951 123.767 48.5958ZM114.52 17.8137C114.508 17.8053 114.039 17.7816 114.029 17.7891C113.769 17.9701 114.711 18.018 114.52 17.8137ZM136.865 24.4214C136.879 24.4408 137.804 24.9797 137.836 24.9889C138.487 25.0005 136.601 23.8941 136.865 24.4214ZM145.834 18.7501C146.366 18.5865 146.974 18.5961 147.356 18.8567C146.864 18.8177 146.354 18.789 145.834 18.7501Z" fill="white"/>
<path d="M24.0296 49.2168C23.9584 48.5489 23.9891 47.6688 24.0466 46.9996C24.0643 46.7896 24.1733 46.8926 24.1903 46.7476C24.2235 46.4639 24.1641 46.2023 24.2053 45.9221C24.2194 45.8293 24.3906 45.9395 24.4016 45.8423C24.4607 45.3096 24.4037 44.8063 24.4243 44.2681C24.526 41.6134 24.5171 39.0009 24.5242 36.3174C24.5263 35.4291 24.6514 34.3499 24.5624 33.4384C24.5519 33.3323 24.4061 33.3993 24.3934 33.3794C24.1998 33.0673 24.4998 33.1646 24.5342 32.955C24.6702 32.1237 24.6622 31.2047 24.5874 30.4145C24.5552 30.0786 24.2701 30.4248 24.4267 30.0786C24.4373 30.0545 24.5957 30.1373 24.6103 30.0437C24.6431 29.8311 24.6063 29.4324 24.6151 29.2699C24.633 28.9555 24.6304 28.9085 24.6258 28.6076C24.6208 28.198 24.6887 27.717 24.6444 27.2826C24.6345 27.189 24.4766 27.3163 24.4463 27.1675C24.416 27.0182 24.4219 26.6245 24.4571 26.492C24.4924 26.3593 24.6196 26.4131 24.6481 26.3892C24.8883 26.1939 24.5419 25.7451 24.5324 25.6857C24.3703 24.6217 24.5474 23.7101 24.5318 22.7027C24.5197 21.9497 24.4454 21.1337 24.446 20.4082C24.4475 19.5484 24.5278 18.818 24.5077 17.9773C24.5058 17.8885 24.3177 17.9936 24.315 17.8853C24.2864 16.7413 24.3049 15.5998 24.438 14.4538C24.4515 14.34 24.6164 14.4875 24.6398 14.374C24.779 13.6749 25.1192 12.5638 24.4059 12.1452C24.4422 11.6588 24.4843 11.0855 24.642 10.6653C24.7436 10.3976 24.9156 10.6732 24.8495 10.3253C24.8349 10.2474 24.6736 10.3427 24.6637 10.2264C24.6298 9.84173 24.6714 9.40974 24.6589 9.02567C24.6563 8.92533 24.6506 8.82795 24.6399 8.73386C24.6284 8.6351 24.4856 8.654 24.4617 8.62491C24.2676 8.39096 24.6359 8.00522 24.6668 7.93007C24.9009 7.29423 24.8704 6.82747 24.97 6.20636C24.9949 6.05959 24.7787 6.20262 24.7965 6.06023C24.8528 5.6841 24.8983 5.33168 25.1276 4.83143C25.1886 4.70992 25.2714 4.55335 25.4337 4.3848C25.5373 4.28127 25.645 4.18872 25.8451 4.1037C26.0433 4.01992 26.289 4.00154 26.4848 4.04551C26.8801 4.14357 27.0188 4.31631 27.1357 4.4322C27.2501 4.55898 27.3154 4.66407 27.3732 4.76452C27.4666 4.93795 27.232 4.87829 27.2673 4.96371C27.3983 5.31904 27.696 5.24528 27.7804 5.57636C27.7966 5.64409 27.6543 5.66661 27.6456 5.68421C27.5095 5.96269 27.8785 5.96931 27.9063 6.01653C28.2372 6.55691 28.0301 7.03605 28.2644 7.56342C28.2928 7.62751 28.4082 7.42125 28.4783 7.60596C28.8433 8.56806 29.1328 9.59704 29.3505 10.6109C29.4045 10.8645 29.4567 11.1278 29.501 11.3784C29.5358 11.5725 29.3697 11.4756 29.3577 11.492C29.171 11.7567 29.5347 11.7874 29.5647 11.844C29.7954 12.3013 29.6546 12.835 30.1398 13.0484C30.6097 15.1359 31.4204 17.0956 31.7849 19.1837C31.7901 19.2104 31.6161 19.2221 31.6272 19.2753C31.7587 19.9055 31.9641 19.7074 32.4116 19.9776C32.5247 20.0473 32.2873 20.4809 32.275 20.5229C32.2201 20.6599 31.9481 20.6567 31.9433 20.697C31.9133 21.0272 32.6506 20.6607 32.8055 20.9946C32.8092 21.0056 32.6513 21.0266 32.6508 21.0609C32.6482 21.1668 32.7488 21.2359 32.7439 21.3421C32.7323 21.5831 32.4193 21.8592 32.8003 22.0356C32.8489 22.0522 33.2086 21.7629 33.3556 22.0063C33.3802 22.0481 33.4782 22.1714 33.5429 22.2258C33.626 22.2849 33.5153 22.222 33.4414 22.2593C33.3444 22.3158 33.4721 22.4372 33.4584 22.4475C33.4897 22.5506 33.6417 22.5113 33.7118 22.5479C33.7971 22.5716 33.8766 22.6309 34.0721 22.5979C34.0855 22.5952 34.0978 22.5921 34.1089 22.5886C34.407 22.5074 33.7931 22.2549 33.7604 22.1499C33.7237 22.0528 33.9912 21.8064 34.068 21.7482C34.1477 21.6881 34.2069 21.8158 34.2606 21.755C34.6101 21.3344 33.9892 21.4503 33.9266 21.2673C33.7705 20.8399 34.3396 20.6815 34.4644 20.3451C34.4981 20.253 34.3658 20.306 34.3729 20.2188C34.3984 19.8899 34.5987 19.7115 34.5218 19.3139C34.5099 19.2464 34.258 18.8869 34.5183 18.7315C34.5558 18.7091 34.6693 18.8118 34.723 18.6744C34.8046 18.4629 34.896 18.0973 34.8927 17.8556C34.8891 17.6838 34.6465 17.8396 34.7471 17.6404C34.792 17.5515 34.8861 17.7462 34.9602 17.5771C35.0345 17.4074 35.1034 16.9568 35.1276 16.7839C35.1516 16.6111 34.9763 16.6789 34.9678 16.6632C34.9203 16.5671 34.8971 16.2288 34.9022 16.199C35.1264 14.7263 35.6223 13.4201 35.8359 11.9783C35.8529 11.8658 35.6701 11.904 35.671 11.8865C35.6843 11.4878 36.0621 11.8859 36.2693 11.6523C35.9226 11.6158 36.0186 11.47 36.0436 11.1964C36.0563 11.0614 35.909 11.1015 35.8984 11.0865C35.7467 10.8431 36.036 10.7714 36.0966 10.7507C36.3199 10.6735 36.1286 10.4782 36.28 10.4235C36.4299 10.3709 36.5658 10.6174 36.6312 10.3627C36.5308 10.2587 36.1663 10.3646 36.1685 10.1558C36.1651 9.3626 36.8912 8.04644 37.2604 7.52178C37.6181 6.98285 37.7759 6.78703 38.1387 6.57644C38.526 6.38535 38.6389 6.35097 38.7232 6.25063C38.7938 6.18246 38.863 6.08617 39.1342 6.06408C39.7211 6.0653 39.2744 6.5892 39.3094 6.72351C39.3247 6.86204 39.4152 6.75637 39.451 6.84824C39.4799 6.93811 39.3237 6.96123 39.442 7.04546C39.5542 7.118 40.0247 7.17591 40.1539 7.11571C40.427 6.97816 40.4601 6.60752 40.7463 7.00253C40.761 7.02462 40.5942 7.08191 40.6553 7.16037C41.1474 7.79127 41.6202 8.42414 41.9714 9.10576C42.0186 9.1991 41.8237 9.22237 41.8494 9.27765C42.1181 9.86525 42.2231 9.50372 42.6884 9.61984C42.2822 9.78797 42.1752 10.1014 42.4169 10.4929C42.5652 10.735 42.7004 10.596 42.9114 10.6871C42.9739 10.7127 42.9662 10.9509 43.061 10.9372C43.372 10.894 43.5522 10.559 43.6955 11.0588C43.7014 11.081 43.5289 11.1 43.5591 11.1709C43.7426 11.6133 44.0409 11.5248 44.3259 11.9607C44.5524 12.3079 44.7362 13.0389 44.9253 13.4661C44.4913 13.6826 44.7916 14.0178 45.1716 14.0259C45.2975 14.3003 45.4616 14.5813 45.5528 14.8656C45.5838 14.9624 45.4286 14.9665 45.4208 14.9846C45.2944 15.2634 45.6438 15.235 45.6843 15.2877C46.1115 15.868 46.1405 16.4913 46.6489 16.9936C46.667 17.0114 46.9878 16.9008 46.8438 17.17C46.8335 17.1878 46.5991 17.0527 46.7252 17.3445C46.8508 17.635 46.9429 18.2523 47.2703 18.584C47.3495 18.6644 47.7113 18.7926 47.6086 19.079C47.5944 19.1174 47.4935 19.1295 47.4623 19.1899C47.3634 19.3839 47.7033 19.3072 47.5069 19.5719C47.3105 19.8364 47.2509 20.224 47.617 20.5432C47.6281 20.5536 47.9172 20.5363 47.9711 20.6643C48.0567 20.8683 48.1378 21.1814 48.2351 21.3909C48.2818 21.4913 48.405 21.3573 48.4158 21.3736C48.811 22.0156 48.8948 22.5637 49.164 23.3177C49.2144 23.4589 49.5947 23.7462 49.5472 24.0801C49.4957 24.447 48.615 24.4964 49.0867 25.0642C49.2807 25.3031 50.3765 25.1925 50.1032 25.8984C50.1793 26.02 50.2468 26.1422 50.3081 26.2643C50.6909 27.0283 50.8673 27.8407 51.385 28.5574C51.4123 28.5957 51.7347 28.5967 51.7776 28.6973C51.8405 28.8461 51.7544 28.9828 51.7942 29.0883C51.9587 29.533 52.2528 29.8804 52.4306 30.2956C52.5006 30.4578 52.3473 30.4635 52.4292 30.6534C52.5088 30.838 52.74 30.8918 52.7778 31.1785C52.8087 31.4013 52.5558 31.751 52.6388 32.0275C52.9818 31.8782 53.0548 32.0485 53.2937 32.3213C53.3391 32.3724 53.4265 32.253 53.454 32.2743C53.5682 32.3583 53.5219 32.5126 53.6397 32.591C53.6681 32.6101 53.7841 32.5568 53.8138 32.5693C54.0694 32.6698 53.9544 33.1023 53.9325 33.174C53.8553 33.4587 54.0463 33.4769 54.0506 33.6664C54.0528 33.8517 53.8631 33.6603 53.9032 33.8583C53.9873 34.2701 54.2161 34.7409 54.3659 35.1265C54.4257 35.2784 54.542 35.1115 54.5542 35.1318C54.7243 35.4371 54.673 35.8219 55.0561 35.8898C54.3037 36.4028 55.2087 36.0569 55.1886 36.5883C55.1863 36.6305 54.802 36.7934 54.7019 36.6727C54.6021 36.5533 54.6583 36.3042 54.5019 36.1439C54.4655 36.1052 54.0079 35.9822 53.9734 35.9586C53.7019 35.7582 54.2633 35.4956 54.2896 35.4682C54.5675 35.1676 54.049 35.009 53.9889 34.9422C53.7096 34.6208 53.6489 34.2712 53.4219 34.0007C53.2727 33.8209 52.8956 33.9737 52.8337 33.8101C52.6277 33.2689 53.049 32.8357 52.3695 32.5507C52.2223 32.4854 51.8753 32.7892 52.0065 32.2534C52.013 32.216 52.1691 31.8015 51.9057 31.7191C51.8726 31.709 51.7561 31.7654 51.7331 31.7424C51.5844 31.5945 51.6175 31.4246 51.4775 31.2461C51.34 31.073 51.1552 30.8564 51.0885 30.6141C51.0469 30.4656 51.1787 30.181 51.2023 30.093C51.2697 29.8384 50.9187 29.7486 51.0527 29.5501C51.1856 29.3468 51.5762 29.438 51.5544 29.0784C51.245 29.2105 50.9205 29.3316 50.606 29.4575C50.3018 28.7841 50.0907 28.0739 49.7665 27.4059C49.7254 27.3218 49.6006 27.4831 49.5532 27.3968C49.4358 27.1827 49.3752 26.9569 49.2957 26.7267C49.2449 26.5776 49.1857 26.4268 49.0944 26.2761C48.9156 25.9804 48.596 25.7388 48.405 25.4334C48.6695 25.0844 48.3351 24.6612 48.2144 24.3081C48.1717 24.1838 48.2689 24.1495 48.261 24.0505C48.2285 23.6771 47.9867 23.9678 47.8979 23.9013C47.5188 23.6164 48.2074 23.2713 47.9871 22.8303C47.9751 22.8056 47.4723 22.6896 47.4308 22.6601C47.165 22.4772 47.5421 22.5596 47.4981 22.3893C47.417 22.0766 47.4163 21.8381 47.153 21.5502C47.0757 21.4665 46.7349 21.3358 46.8279 21.0639C46.84 21.0281 46.9696 20.9855 46.9676 20.962C46.9204 20.5416 46.5284 20.7093 46.3013 20.561C46.0747 20.4138 46.1928 19.969 46.2392 19.8677C46.3586 19.604 46.3851 19.9596 46.4089 19.9598C46.6918 19.9612 46.5431 19.7449 46.4792 19.5562C46.8459 19.3539 46.7063 19.1137 46.4115 19.3616C46.3795 19.3891 46.4797 19.5119 46.4792 19.5562C46.0342 19.5714 45.8591 19.3198 46.0633 18.8535C46.159 18.6351 46.4119 18.6803 46.1387 18.2809C46.0148 18.0998 45.7907 18.2985 45.6381 18.1599C45.2898 17.8433 45.2875 17.2185 45.0522 16.832C44.967 16.6921 44.895 16.9038 44.832 16.8108C44.6643 16.5645 44.6562 16.2805 44.4697 16.0409C44.4527 16.0194 44.3342 16.1513 44.2914 16.0699C43.9659 15.4586 43.7845 14.8677 43.4513 14.2251C43.2899 13.9132 42.9184 13.4118 42.7574 13.0824C42.4891 12.5285 42.308 11.732 41.9862 11.3145C41.7746 11.038 41.6722 11.188 41.4999 11.1228C41.1712 11.0037 41.226 10.3731 41.2396 10.2861C41.2398 10.2823 41.4329 10.5056 41.4179 10.3284C41.5151 10.1553 41.2419 10.2883 41.2396 10.2861C41.2531 10.2326 40.9479 9.72016 40.8591 9.65457C40.8098 9.61546 40.7032 9.73473 40.6794 9.71209C40.1262 9.18461 39.6139 8.62535 39.2213 8.22384C39.2157 8.21551 39.3349 8.08684 39.3197 8.06841C39.1077 7.79565 38.7966 7.95313 38.9121 8.10376C38.9352 8.12942 38.9719 8.14655 39.0106 8.152C39.1833 8.16977 39.1887 8.04066 38.9771 7.90564C38.9361 7.98252 38.6602 8.1294 38.4915 8.26981C38.3269 8.39851 38.616 8.58797 38.6147 8.60398C38.5745 9.17876 38.2788 9.42836 38.0536 10.0405C37.9469 10.3278 37.8289 10.9518 37.7863 11.2899C37.7503 11.564 37.6361 11.7042 37.6302 11.9636C37.6294 11.9987 37.7847 11.9977 37.7881 12.0092C37.9038 12.3254 37.5717 12.1132 37.4944 12.1568C37.2149 12.3121 37.0612 12.4166 37.0985 12.8021C37.107 12.8903 37.582 13.2351 37.5836 13.3925C37.5844 13.5979 37.4111 13.4867 37.4176 13.7019C37.418 13.7203 37.5344 13.7382 37.5056 13.8649C37.373 14.4544 37.1922 15.0951 37.0984 15.7243C37.0852 15.8102 37.288 15.7314 37.2719 15.8559C37.1967 16.4381 37.0845 17.081 36.9034 17.6376C36.8579 17.7762 36.7436 17.6655 36.7002 17.69C36.4367 17.8411 36.7295 18.1605 36.7282 18.2068C36.7081 19.2956 36.2707 20.0457 36.1566 21.2033C36.152 21.2664 36.3867 21.8458 36.0159 21.9897C35.9924 21.9956 35.6192 22.1314 35.759 22.3999C35.7669 22.4182 35.9757 22.3237 35.8697 22.5747C35.7846 22.7701 35.732 23.0685 35.4946 23.412C35.3734 23.586 35.2506 23.7186 35.023 23.8822C34.8917 23.9684 34.6945 24.0656 34.2623 24.2143C33.8661 24.3597 33.186 24.3785 32.6838 24.2698C32.6634 24.2777 32.2127 24.2158 31.9342 24.0916C31.6172 23.9464 31.4258 23.7782 31.4937 23.5442C31.5232 23.4696 31.8652 23.2493 31.4351 22.9944C31.3556 22.9475 31.3571 23.1272 31.19 22.9707C30.9295 22.7203 30.8476 22.3179 30.5216 22.066C30.4672 22.0297 30.0874 21.8895 30.2068 21.6165C30.2252 21.5732 30.3787 21.5738 30.3502 21.4675C30.2153 20.9599 29.9378 20.5013 29.8568 19.9952C29.8278 19.8152 30.0726 19.8228 30.0674 19.6277C30.0641 19.4384 29.9958 19.0644 29.8374 18.9211C29.6772 18.7733 29.401 19.0896 29.2806 18.8238C28.7628 17.6769 28.6075 16.4419 28.2864 15.2602C28.239 15.085 28.1575 15.2664 28.0788 15.0107C27.7872 14.067 27.1975 12.4793 27.2209 11.5909C27.2405 10.8873 27.638 11.6351 27.5843 11.1383C27.5839 11.1348 27.5835 11.1313 27.583 11.1276C27.5515 10.8718 27.0711 10.7404 27.0407 10.6859C26.7419 10.1644 26.8002 9.71911 26.5885 9.24238C26.5438 9.1416 26.4135 9.29573 26.3775 9.20995C26.254 8.92148 26.2255 8.58963 26.1175 8.31528C26.0685 8.19229 25.9528 8.25757 25.9238 8.14269C25.8506 7.86288 25.8169 7.60729 25.8368 7.31642C25.8384 7.28923 26.0502 7.38809 25.981 7.19058C25.8731 6.88449 25.8202 6.44357 25.568 6.2411C25.4969 6.1903 25.2259 6.31597 25.3616 6.14991C25.3767 6.13419 25.4575 6.07462 25.5 6.03752C25.5596 6.01368 25.4881 5.94123 25.534 6.1856C25.542 6.20383 25.5666 6.28901 25.7625 6.41901C25.8646 6.48374 26.0678 6.57002 26.3255 6.58277C26.5814 6.60314 26.909 6.51077 27.0869 6.41318C27.4728 6.19531 27.5326 6.0652 27.5745 6.01366C27.6042 5.96244 27.5776 5.95473 27.5104 5.94387C27.4414 5.92462 27.132 5.92379 27.1489 6.05118C27.1528 6.06665 27.3215 6.04986 27.317 6.13694C27.2979 6.45319 27.2238 6.86471 27.2312 7.27084C27.2332 7.38288 27.4154 7.2348 27.4134 7.40219C27.4105 7.84024 27.3262 8.44085 27.2506 8.8794C27.2219 9.04975 27.0911 8.92394 27.0754 8.93549C26.9729 9.01187 26.9644 9.08159 26.9916 9.14165C27.0322 9.22327 27.1507 9.28568 27.1603 9.32492C27.2558 9.74235 27.0901 10.0473 27.1183 10.4385C27.1257 10.5474 27.2846 10.4753 27.2979 10.4974C27.4274 10.7242 27.1514 10.5501 27.1163 10.6858C27.0174 11.0631 27.0195 11.508 27.0321 11.899C27.0369 12.0455 27.2215 11.8842 27.2238 12.0159C27.241 12.7834 27.2153 13.5874 27.111 14.3431C27.091 14.4838 26.9517 14.3945 26.9196 14.4237C26.6951 14.625 26.9988 14.9299 27.0276 15.0004C27.1593 15.3156 27.0355 15.4306 27.0584 15.7095C27.1723 17.0631 27.1017 18.7368 27.065 20.0192C27.0178 21.6887 26.9044 22.9908 26.9664 24.5852C26.9702 24.6867 27.1544 24.5815 27.16 24.668C27.2244 25.787 27.1735 26.9093 27.2507 28.0321C27.2567 28.1247 27.4302 27.9873 27.4458 28.136C27.479 28.4411 27.4777 28.8313 27.4281 29.1381C27.4043 29.2888 27.2486 29.0907 27.2277 29.2424C27.1787 29.5947 27.1747 29.9788 27.2111 30.3387C27.227 30.4918 27.402 30.2562 27.4086 30.4557C27.4576 31.8239 27.5209 33.1591 27.3223 34.55C27.3086 34.6457 26.9443 34.7367 27.0197 34.9357C27.1217 34.9483 27.2413 34.9444 27.3502 34.9483C27.4591 36.9363 27.3846 38.9093 27.4197 40.9057C27.4212 40.9896 27.6114 40.8392 27.6153 41.0018C27.6383 41.9438 27.7175 42.8575 27.5517 43.8289C27.5355 43.9254 27.1926 43.8856 27.2522 44.1658C27.263 44.2152 27.3205 44.6384 27.3977 44.7462C27.4093 44.7608 27.5665 44.6788 27.575 44.8156C27.6217 45.6119 27.6089 46.4444 27.5341 47.2422C27.5217 47.3707 27.3481 47.2392 27.3378 47.3308C27.2661 47.9804 27.4153 48.6819 27.2788 49.3047C27.1869 49.7218 26.8891 49.5769 26.6066 49.8053C26.5667 49.8376 26.5676 50.0943 26.3999 50.1123C25.9784 50.1585 25.5121 50.0474 25.0632 50.1113C24.9665 50.1248 25.0808 50.4654 24.8405 50.2687C24.8244 50.2549 24.7395 50.0081 24.6582 49.949C24.602 49.9078 24.4333 49.9897 24.3605 49.9046C24.2876 49.8194 24.4282 49.7196 24.3413 49.5775C24.2535 49.4355 24.0609 49.5045 24.0296 49.2168ZM37.7609 8.99604C37.531 9.1413 38.0825 9.37528 38.0282 9.11385C38.0249 9.10112 37.7723 8.98873 37.7609 8.99604ZM50.5031 27.8882C50.616 27.5048 50.1804 27.4868 50.083 27.7616C49.9846 28.0335 50.47 28.0067 50.5031 27.8882ZM51.9979 30.6083C52.0349 30.2026 51.2463 30.5195 51.5616 30.7825C51.5799 30.7983 51.9959 30.6321 51.9979 30.6083ZM26.4952 48.787C26.4873 48.7904 26.4849 48.9749 26.4929 48.9791C26.6856 49.0718 26.6904 48.7028 26.4952 48.787ZM53.5031 33.286C53.5628 33.1421 53.3078 32.9107 53.2368 33.0953C53.1804 33.2449 53.4296 33.4663 53.5031 33.286ZM34.752 20.3967C34.7425 20.3987 34.7064 20.5275 34.7562 20.5354C34.9167 20.562 34.9115 20.3681 34.752 20.3967ZM55.2338 38.129C55.1235 37.3897 55.6739 36.7439 55.7957 37.607C55.8149 37.7613 55.5051 37.3283 55.4864 37.5349C55.4504 37.9041 55.9276 38.0592 55.7545 38.4632C55.7228 38.5319 55.2397 38.1702 55.2326 38.1278C55.233 38.1282 55.2334 38.1286 55.2338 38.129ZM37.0437 8.86105C37.0344 8.86231 36.9633 9.03611 36.9704 9.04057C37.1158 9.19657 37.2548 8.8577 37.0437 8.86105ZM31.468 18.7809C31.4797 18.7646 31.3576 18.3618 31.3388 18.3535C30.9726 18.244 31.2211 19.0665 31.468 18.7809ZM44.9172 13.4785C45.1791 13.5666 45.3107 13.7715 45.1714 14.025C45.0905 13.8402 44.9994 13.6607 44.9172 13.4785Z" fill="white"/>
<path d="M76.5273 3.13193C75.9632 3.37499 75.184 3.57644 74.5823 3.69738C74.3941 3.73544 74.4517 3.60431 74.3199 3.62619C74.0619 3.66923 73.8516 3.79467 73.5942 3.82938C73.5087 3.84042 73.555 3.6477 73.4665 3.66292C72.9831 3.74723 72.5613 3.93467 72.0857 4.05814C69.7378 4.66862 67.4704 5.38421 65.1606 6.15674C64.3978 6.41209 63.4321 6.6159 62.687 6.98316C62.5992 7.02653 62.7077 7.14208 62.6949 7.16021C62.4948 7.43995 62.4742 7.12793 62.2856 7.16094C61.5352 7.29397 60.7638 7.60214 60.1368 7.94425C59.8718 8.08988 60.2678 8.23285 59.9218 8.20872C59.8979 8.20738 59.9033 8.03302 59.8207 8.05222C59.636 8.09444 59.3201 8.27263 59.1874 8.32268C58.9233 8.42194 58.8829 8.44347 58.6471 8.55911C58.3238 8.71671 57.9081 8.84799 57.6006 9.06673C57.5968 9.06947 57.5938 9.07235 57.5916 9.07536C57.5535 9.12471 57.7017 9.20448 57.6096 9.28799C57.5126 9.37508 57.2232 9.53792 57.1141 9.56556C57.0009 9.59452 56.9699 9.46419 56.9374 9.45095C56.6587 9.3403 56.547 9.84 56.5194 9.87465C55.9315 10.4904 55.3813 10.9511 55.4525 11.2642C55.4709 11.4539 55.7522 11.7447 56.12 11.9704C56.2216 12.0355 56.324 12.0985 56.4256 12.1605C57.0111 12.5148 57.5534 12.8215 58.2444 13.0158C58.3176 13.0361 58.2864 12.8302 58.3751 12.8541C59.3094 13.1038 60.2836 13.2948 61.2762 13.5548C61.3755 13.5808 61.2237 13.7281 61.3219 13.7639C61.9242 13.9818 62.8991 14.4074 63.3414 13.7234C63.7662 13.7915 64.2864 13.8662 64.6602 14.0452C64.9013 14.1605 64.6432 14.3188 64.9562 14.2693C65.0268 14.2584 64.951 14.093 65.0559 14.0885C65.4983 14.07 65.9717 14.1655 66.4156 14.1292C66.5059 14.1215 66.4964 13.9781 66.5242 13.9554C66.7571 13.7717 67.0749 14.1509 67.1477 14.1846C67.7115 14.4372 68.1449 14.4219 68.6926 14.5146C68.8192 14.5366 68.7 14.3241 68.8234 14.3387C69.4656 14.4178 70.1311 14.5709 70.7335 14.8225C70.8671 14.8791 70.6968 15.0003 70.7578 15.0353C71.0218 15.1879 71.1784 14.9155 71.4365 15.069C71.4905 15.1012 71.4137 15.2219 71.4195 15.2399C71.5069 15.521 71.7614 15.2536 71.808 15.2629C71.87 15.2741 71.9278 15.2899 71.982 15.3094C72.4944 15.5043 72.6901 15.9019 73.1329 16.2168C73.201 16.2698 73.1716 16.004 73.3596 16.1689C74.0181 16.6574 74.21 17.9189 73.8364 18.5819C73.5214 19.2854 73.036 19.769 72.5797 20.1588C72.4312 20.2836 72.431 20.0926 72.4107 20.0904C72.0923 20.0558 72.2483 20.3783 72.2144 20.4297C71.9333 20.8331 71.4141 20.9047 71.4244 21.4245C69.7877 22.5979 68.2728 23.8614 66.4397 24.616C66.4167 24.6258 66.3631 24.4611 66.3176 24.4812C65.769 24.7218 66.005 24.8794 65.8446 25.3595C65.8039 25.4804 65.3437 25.3171 65.3062 25.3074C65.1688 25.2716 65.1201 25.0073 65.0819 25.0076C64.7711 25.0177 65.249 25.6909 64.9436 25.8844C64.9334 25.8893 64.8923 25.7357 64.8587 25.7391C64.7536 25.7495 64.7062 25.8508 64.6002 25.856C64.3567 25.8668 64.0789 25.5685 63.9318 25.9372C63.9131 25.9848 64.2175 26.3456 63.9312 26.5005C63.8161 26.5623 63.3412 26.8726 63.1921 26.9316C63.0402 26.9924 63.0525 26.806 63.0393 26.8066C62.5677 26.8707 62.6618 26.7129 62.3213 26.5804C61.982 26.4486 62.4106 27.0066 62.3798 27.1193C62.3511 27.2304 61.9937 27.2652 61.8979 27.2593C61.8017 27.2535 61.8309 27.1205 61.7553 27.1308C61.2578 27.202 61.7777 27.5313 61.7138 27.7058C61.5703 28.1143 61.0433 27.8395 60.7521 27.9737C60.673 28.0103 60.7972 28.0694 60.7402 28.1212C60.5078 28.3293 60.2566 28.3043 60.0623 28.6215C60.0338 28.6708 59.9741 29.0954 59.6964 29.0136C59.6563 29.0018 59.6392 28.8541 59.5174 28.9067C59.3422 28.9796 59.0287 29.1781 58.8949 29.3376C58.7956 29.4557 59.062 29.5182 58.8743 29.5814C58.7906 29.6099 58.8362 29.4143 58.6818 29.4792C58.5149 29.553 58.2168 29.8094 58.0976 29.9237C57.9805 30.0348 58.1554 30.0955 58.1527 30.1124C58.1339 30.212 57.9865 30.4613 57.9731 30.4763C57.7505 30.7052 57.5523 30.918 57.4132 31.1102C56.8961 31.8385 56.4995 32.7582 56.784 33.6196C56.8139 33.7049 56.9629 33.6011 56.9691 33.6137C57.1237 33.863 56.6156 33.7832 56.5612 34.0637C56.8693 33.898 56.8544 34.0496 57.0012 34.2138C57.0729 34.2902 57.1533 34.1673 57.17 34.1679C57.4099 34.1593 57.2642 34.3836 57.2481 34.4459C57.2126 34.5416 57.2507 34.5773 57.2939 34.5962L57.1863 34.5368C57.248 34.5377 57.3095 34.5189 57.3312 34.5984C57.3739 34.7456 57.1439 34.887 57.3786 34.9453C57.4719 34.8407 57.386 34.4854 57.5656 34.4757C58.2226 34.4553 59.4009 34.7752 59.9523 34.7622C60.488 34.7625 60.6629 34.7163 60.9778 34.7261C61.5526 34.734 61.3179 34.5211 61.6424 34.3598C61.9727 34.193 61.903 34.8042 61.9757 34.921C62.0476 35.0375 62.0794 34.8988 62.1547 34.9561C62.2304 35.0131 62.1091 35.1236 62.263 35.1217C62.417 35.1206 62.777 34.8155 62.7964 34.6745C62.8451 34.3753 62.6041 34.1266 63.0059 34.1429C63.0287 34.144 62.9937 34.3116 63.0794 34.3082C63.7684 34.273 64.4587 34.0944 65.1459 34.0012C65.2411 33.9884 65.2089 34.1785 65.2651 34.1728C65.8469 34.1131 65.5656 33.8927 65.7689 33.49C65.8326 33.9219 66.0714 34.1254 66.4937 33.9909C66.7413 33.9117 66.6403 33.7463 66.7596 33.5668C66.796 33.5126 67.0128 33.5762 67.0153 33.4817C67.0267 33.1717 66.7562 32.9221 67.2218 32.8988C67.2425 32.8981 67.2346 33.0686 67.3025 33.0553C67.7317 32.9728 67.6893 32.6665 68.1147 32.4748C68.4574 32.3211 69.1324 32.2681 69.5401 32.1449C69.604 32.3229 69.6942 32.394 69.7833 32.3921C69.9147 32.3885 70.0417 32.2049 70.056 31.9778C70.3136 31.8855 70.5859 31.751 70.8439 31.6928C70.934 31.672 70.9333 31.8247 70.9497 31.8342C71.2045 31.9853 71.1923 31.6373 71.2406 31.6031C71.7847 31.2388 72.3607 31.2615 72.8338 30.7963C72.8502 30.7798 72.7489 30.4567 72.996 30.6183C73.0125 30.6296 72.8871 30.8504 73.1567 30.7475C73.4296 30.6431 74.0016 30.5929 74.3048 30.2909C74.3774 30.2184 74.4993 29.8671 74.7614 29.9859C74.7969 30.0021 74.8094 30.1021 74.8654 30.1364C75.0457 30.2446 74.9707 29.9058 75.2193 30.1129C75.4708 30.3187 75.8258 30.4 76.121 30.0521C76.1314 30.0412 76.1088 29.7563 76.2266 29.7091C76.4134 29.6345 76.7059 29.567 76.8957 29.481C76.9879 29.4392 76.8608 29.3121 76.8756 29.3022C77.4658 28.9382 77.9662 28.8791 78.6622 28.6387C78.7922 28.5939 79.0453 28.2299 79.3588 28.287C79.7024 28.3493 79.7697 29.2217 80.2881 28.7728C80.5008 28.5907 80.3693 27.5044 81.0294 27.7987C81.8118 27.296 82.702 27.1931 83.4628 26.6316C83.4968 26.6066 83.4938 26.2872 83.5842 26.2498C83.7186 26.1948 83.8483 26.2849 83.9465 26.2494C84.356 26.1052 84.6709 25.8306 85.0553 25.6716C85.2019 25.6106 85.211 25.7617 85.3863 25.6887C85.5615 25.6155 85.5986 25.3936 85.8677 25.3666C86.0717 25.3465 86.4083 25.6075 86.6614 25.5375C86.5115 25.1949 86.6735 25.1274 86.9159 24.9043C86.9624 24.8613 86.8484 24.7711 86.8675 24.7447C86.9442 24.6345 87.0877 24.6861 87.1569 24.5728C87.1737 24.5454 87.1206 24.4293 87.1312 24.4005C87.2186 24.1515 87.6188 24.28 87.6881 24.3025C87.9521 24.3877 87.9682 24.1963 88.1395 24.1979C88.3111 24.1993 88.1424 24.3827 88.3249 24.3464C88.7033 24.2709 89.1317 24.0442 89.4773 23.8857C89.6153 23.8216 89.4482 23.7125 89.4662 23.6998C89.7324 23.5247 90.0964 23.5514 90.1069 23.1699C90.6829 23.8671 90.2419 23.0108 90.7225 22.9747C90.7604 22.9722 90.9809 23.3268 90.8851 23.4405C90.7897 23.5539 90.546 23.5271 90.4171 23.6942C90.3864 23.7337 90.3238 24.195 90.3026 24.2313C90.1364 24.515 89.832 23.9729 89.8046 23.9483C89.4975 23.6876 89.3959 24.2003 89.3342 24.2618C89.0525 24.543 88.7227 24.6031 88.48 24.823C88.3211 24.966 88.4751 25.3427 88.3232 25.4008C87.8179 25.5943 87.4072 25.1613 87.1566 25.8222C87.1028 25.9633 87.3896 26.3193 86.8885 26.1688C86.8567 26.1594 86.458 25.9935 86.3924 26.2473C86.3842 26.2792 86.4397 26.3962 86.4192 26.4177C86.2809 26.5601 86.1263 26.5185 85.9624 26.6495C85.7992 26.7801 85.6097 26.9496 85.3829 27.0067C85.2449 27.0419 84.9806 26.8987 84.8953 26.8732C84.6529 26.7982 84.5878 27.1356 84.3962 26.9974C84.2021 26.8591 84.2795 26.477 83.9426 26.4855C84.0733 26.7955 84.1942 27.1198 84.3193 27.4345C83.7013 27.707 83.053 27.8854 82.4403 28.1817C82.365 28.2185 82.5181 28.3473 82.4393 28.391C82.1069 28.5745 81.7482 28.5962 81.4121 28.8052C81.1477 28.9697 80.9274 29.2795 80.6526 29.4566C80.3153 29.1868 79.9396 29.4994 79.6095 29.609C79.4947 29.6472 79.46 29.5501 79.3685 29.5544C79.0249 29.5726 79.3001 29.8218 79.2411 29.9069C78.9842 30.272 78.6451 29.5807 78.2411 29.7815C78.2194 29.792 78.1208 30.285 78.095 30.3244C77.9317 30.5792 77.9986 30.2109 77.8422 30.2472C77.5512 30.3158 77.3293 30.3069 77.0663 30.5545C76.9889 30.6275 76.873 30.9581 76.6182 30.8542C76.5847 30.8406 76.5428 30.7109 76.5211 30.7118C76.1287 30.7397 76.2899 31.1342 76.1551 31.3509C76.0229 31.5663 75.5998 31.4302 75.5066 31.3784C75.26 31.2467 75.5909 31.2393 75.5912 31.2157C75.5904 30.9365 75.3887 31.0728 75.215 31.1249C75.0251 30.752 74.8007 30.877 75.0341 31.1811C75.0605 31.2139 75.1744 31.1218 75.215 31.1249C75.2354 31.5631 74.9927 31.726 74.5612 31.4956C74.3579 31.388 74.398 31.1428 74.0256 31.3871C73.8571 31.4976 74.043 31.7306 73.9119 31.8725C73.6104 32.1974 73.0263 32.1559 72.6619 32.357C72.5285 32.4305 72.7259 32.5176 72.637 32.5727C72.4035 32.7185 72.134 32.7046 71.906 32.8666C71.8855 32.8814 72.0051 33.0098 71.928 33.0447C71.3813 33.2947 70.8623 33.4155 70.2935 33.634C70.2871 33.6364 70.2683 33.6444 70.2618 33.6466C70.2141 33.6634 70.1662 33.6808 70.1181 33.6989C69.8096 33.815 69.289 34.1059 68.9628 34.2046C68.3963 34.3786 67.6245 34.3942 67.1655 34.6083C66.861 34.749 66.9828 34.8819 66.8832 35.0328C66.6858 35.327 66.1044 35.1008 66.0221 35.0625C66.0192 35.0615 66.2845 34.938 66.1115 34.9034C65.9736 34.7617 66.0251 35.0608 66.0221 35.0625C65.9696 35.0388 65.4104 35.1686 65.3106 35.2294C65.2565 35.2631 65.333 35.4035 65.304 35.4182C64.6057 35.766 63.8488 36.0051 63.053 36.1001C63.0388 36.0999 63.0228 35.9247 62.9899 35.9263C62.5209 35.9455 62.2768 36.2075 61.9071 36.3958C61.5427 36.5824 61.2142 36.5798 60.9553 36.3057C60.6609 36.3764 60.2268 36.2746 59.9763 36.2026C59.7309 36.131 59.6995 36.4697 59.6778 36.4772C58.9841 36.6969 58.5613 36.4828 57.8339 36.3421C57.5695 36.2901 57.096 36.2183 56.716 36.1346C56.5916 36.093 56.2864 35.935 56.1913 35.8447C56.0521 35.7341 55.9329 35.6216 55.8392 35.5248C55.5303 35.1968 55.4713 34.9273 55.2721 34.5996C55.2457 34.5541 55.1263 34.6611 55.1147 34.6485C54.7839 34.2948 55.2134 34.371 55.246 34.2689C55.3867 33.9031 55.4672 33.7333 55.3134 33.2818C55.2778 33.1872 54.7373 32.8634 54.7246 32.6354C54.7092 32.3539 54.8871 32.4783 54.8811 32.1947C54.8816 32.1709 54.7624 32.1558 54.8004 31.9844C54.9582 31.2814 55.2946 30.625 55.6479 30.0489C55.7044 29.9561 55.7627 29.8675 55.8223 29.7815C55.8935 29.6813 55.6474 29.7 55.7525 29.5508C56.2272 28.8973 56.7816 28.4367 57.2715 28.1421C57.3991 28.0662 57.4107 28.226 57.4598 28.236C57.7639 28.2911 57.7476 27.871 57.7808 27.8373C58.5117 27.0702 59.3259 26.891 60.0788 26.2123C60.1198 26.1745 60.2755 25.6333 60.6013 25.7963C60.6236 25.8068 60.953 25.9758 60.972 25.7018C60.9733 25.6847 60.7855 25.609 60.9654 25.5128C61.1491 25.4142 61.3528 25.1522 61.6851 25.1558C61.7889 25.1576 62.1391 25.3145 62.2173 24.9623C62.2214 24.9384 62.2492 24.2367 62.5836 24.497C62.6381 24.5402 62.8442 24.909 62.9889 24.5617C63.016 24.495 62.8758 24.4722 62.9749 24.3401C63.1262 24.1373 63.4526 24.0649 63.5985 23.7502C63.6235 23.6951 63.6521 23.3381 63.9142 23.4293C63.9552 23.4436 63.9873 23.5901 64.0727 23.5546C64.4793 23.3864 64.8116 23.0631 65.2314 22.909C65.3801 22.8541 65.4361 23.0888 65.6059 23.0519C65.7757 23.0151 66.0815 22.8866 66.1653 22.7075C66.2488 22.5284 65.8972 22.3249 66.0904 22.1635C66.9343 21.4579 67.9418 21.0309 68.8108 20.4217C68.9385 20.3318 68.7583 20.305 68.9376 20.1663C69.6245 19.645 70.5877 18.6547 71.159 18.3802C71.6413 18.141 71.3801 18.7301 71.6903 18.4871C71.8388 18.3668 71.5846 17.9807 71.5843 17.9538C71.6326 17.6288 71.762 17.5882 71.7222 17.717C71.7163 17.7485 71.5417 17.7502 71.5417 17.7872C71.5486 17.9394 71.6923 17.9652 71.6359 17.9295C71.6118 17.9175 71.5351 18.0234 71.5195 17.9989C71.4705 17.9341 71.3856 17.82 71.2728 17.6361C71.2605 17.6185 71.4364 17.5186 71.3029 17.4532C71.2634 17.4345 71.2211 17.4117 71.1749 17.3866C70.956 17.268 70.6957 17.112 70.3975 17.131C70.2897 17.1386 70.2082 17.4245 70.0552 17.1692C70.0232 17.1164 70.1689 16.7826 69.8449 17.0199C69.7887 17.0577 69.2843 17.3679 69.1319 17.0637C69.0915 16.983 69.0053 16.6666 68.8716 16.6886C68.8534 16.6928 68.8913 16.8629 68.7858 16.8592C68.4128 16.8437 68.0313 16.7664 67.6402 16.7633C67.5356 16.7628 67.666 16.948 67.5112 16.9423C67.0898 16.9274 66.5619 16.8246 66.1463 16.73C65.9925 16.6947 66.1141 16.569 66.1043 16.553C65.9453 16.2922 65.8047 16.6086 65.7421 16.6217C65.3524 16.6992 65.0764 16.5193 64.7184 16.5284C64.6196 16.5305 64.6751 16.6926 64.6544 16.7048C64.4404 16.8227 64.6157 16.556 64.4904 16.5138C64.1391 16.3945 63.735 16.3718 63.3647 16.358C63.2287 16.3532 63.3643 16.5479 63.2423 16.5415C62.5192 16.5063 61.7582 16.4124 61.0466 16.2198C60.9133 16.1832 61.0168 16.0556 60.9927 16.0203C60.827 15.7737 60.4993 16.0348 60.4282 16.0534C60.1047 16.1392 60.0063 15.9982 59.7331 15.9751C58.4028 15.8695 56.7072 15.3583 55.4495 14.6191C55.1755 14.4617 54.9143 14.2902 54.6708 14.1087C54.0243 13.6149 53.228 12.8911 53.0444 11.5965C52.9024 10.2799 53.5822 9.36129 54.1044 8.76129C54.1881 8.66811 53.965 8.63446 54.0382 8.55078C54.7796 7.74144 55.5488 7.29843 56.3043 6.84745C56.5378 6.71062 56.7778 6.57289 57.012 6.43505C57.0928 6.38808 56.8916 6.29433 57.0189 6.21377C57.2714 6.05178 57.616 5.89127 57.9147 5.8108C58.0555 5.77355 57.9477 5.99271 58.0879 5.95265C58.4179 5.8583 58.75 5.71967 59.0545 5.55296C59.182 5.48266 58.9083 5.40699 59.0804 5.32823C60.265 4.78473 61.4188 4.28898 62.7014 4.04603C62.7892 4.02952 62.9952 4.34302 63.1418 4.212C63.1187 4.11197 63.0754 4.00041 63.0425 3.89662C64.749 3.18553 66.5051 2.69464 68.2466 2.11004C68.3198 2.08547 68.1301 1.94575 68.2713 1.89729C69.0933 1.61511 69.871 1.29188 70.7723 1.18961C70.8617 1.17921 70.9285 1.51724 71.1576 1.385C71.1985 1.36116 71.5516 1.19354 71.6238 1.09093C71.6332 1.07594 71.5147 0.947661 71.6323 0.903014C72.316 0.646504 73.053 0.437472 73.7737 0.299041C73.8902 0.276965 73.8255 0.477695 73.9089 0.463371C74.5004 0.360504 75.0711 0.0339829 75.6574 0.000992417C76.0499 -0.0204647 76.0095 0.30242 76.292 0.512815C76.3319 0.542477 76.5566 0.474376 76.6213 0.630018C76.7846 1.02119 76.8231 1.49627 77.0098 1.90897C77.0499 1.99793 77.315 1.79935 77.2126 2.0807C77.2053 2.0997 77.0137 2.24562 76.9856 2.33884C76.9659 2.40338 77.0868 2.5433 77.0334 2.63532C76.9801 2.72726 76.8517 2.619 76.7525 2.73927C76.6538 2.86048 76.7703 3.02664 76.5273 3.13193ZM58.8793 35.8355C58.6664 35.6584 58.585 36.252 58.8473 36.1259C58.8601 36.119 58.8906 35.8442 58.8793 35.8355ZM82.8666 27.4739C82.5098 27.3473 82.4988 27.779 82.7601 27.8835C83.0223 27.9872 82.9747 27.5123 82.8666 27.4739ZM85.3552 26.1113C84.9789 26.057 85.2912 26.8472 85.5281 26.5478C85.542 26.5306 85.3772 26.1143 85.3552 26.1113ZM75.4318 0.886402C75.4371 0.893027 75.5996 0.846978 75.6009 0.838233C75.626 0.629579 75.3011 0.72179 75.4318 0.886402ZM87.8086 24.7284C87.6694 24.6673 87.4676 24.909 87.64 24.9854C87.7788 25.0469 87.9818 24.8044 87.8086 24.7284ZM60.582 27.7362C60.5896 27.7418 60.6934 27.6819 60.6635 27.6413C60.5663 27.511 60.4534 27.642 60.582 27.7362ZM92.1091 22.6592C91.4614 22.9374 90.7717 22.492 91.4965 22.2297C91.6274 22.1822 91.325 22.5607 91.5112 22.5409C91.8519 22.504 91.8533 22.0144 92.2542 22.0819C92.327 22.0945 92.1467 22.6447 92.1084 22.6606C92.1086 22.6601 92.1089 22.6596 92.1091 22.6592ZM58.7997 35.1105C58.7954 35.1026 58.6316 35.082 58.6259 35.089C58.517 35.2706 58.8578 35.3136 58.7997 35.1105ZM66.7293 24.2341C66.7465 24.2432 67.0814 24.044 67.0832 24.024C67.0828 23.6536 66.4076 24.0544 66.7293 24.2341ZM69.551 32.1546C69.575 32.0982 69.6041 32.0494 69.6375 32.0099L69.6235 32.0155C69.7259 31.8833 69.8798 31.8512 70.0551 31.9779C69.9226 32.0226 69.7939 32.0723 69.6661 32.1185L69.6772 32.114C69.6352 32.128 69.5931 32.1416 69.551 32.1546Z" fill="white"/>
</svg>
