<svg viewBox="0 0 68 15" fill="none" xmlns="http://www.w3.org/2000/svg" style="height: 100%; width: auto;"><g clip-path="url(#clip0_649_935)"><path d="M37.5082 11.7364L34.9985 7.90108C34.9985 7.90108 34.983 7.88441 34.9675 7.88441C36.2378 7.63121 37.0537 6.04276 37.0537 4.18355C37.0537 2.59509 36.5985 1.41277 35.9718 0.888846C35.3599 0.313942 34.4975 0.161865 32.5842 0.161865H23.3155C23.2682 0.161865 23.2372 0.195269 23.2372 0.246254V11.7531C23.2372 11.8041 23.2682 11.8375 23.3155 11.8375H26.4518C26.4992 11.8375 26.5302 11.8032 26.5302 11.7531V8.98146C26.5302 8.93049 26.5612 8.89708 26.6085 8.89708H31.6426C31.6736 8.89708 31.721 8.91375 31.7365 8.94805L33.587 11.7866C33.6024 11.8199 33.6498 11.8375 33.6808 11.8375H37.4609C37.5237 11.8375 37.5392 11.7865 37.5082 11.7364ZM31.6745 6.04188H26.6085C26.5612 6.04188 26.5302 6.00848 26.5302 5.95749V3.10232C26.5302 3.05133 26.5612 3.01792 26.6085 3.01792H31.7838C32.7874 3.01792 33.0697 3.08561 33.3055 3.33878C33.5249 3.60865 33.5878 3.9128 33.5878 4.67319C33.5878 5.82212 33.2582 6.04188 31.6745 6.04188Z" fill="currentColor"></path><path d="M67.7356 3.32986C67.5164 1.47153 66.7003 0.541493 65.0068 0.203935C64.2699 0.0685604 63.2974 0.0351562 60.1765 0.0351562C57.3062 0.0351562 56.3026 0.102844 55.4084 0.373593C54.1853 0.778838 53.5424 1.42143 53.2283 2.67145C53.0397 3.46524 53.0088 3.93905 53.0088 5.93275C53.0088 8.46707 53.1026 9.3461 53.5261 10.1909C53.934 11.0699 54.6398 11.5596 55.8473 11.7794C56.4902 11.9147 57.8079 11.9648 60.3799 11.9648C61.4462 11.9648 62.9047 11.9481 63.485 11.9139C65.0689 11.8461 65.9781 11.5763 66.6212 10.9847C67.5621 10.1566 67.8288 9.0077 67.8288 6.18592C67.8288 4.76624 67.7971 3.82038 67.735 3.32986M64.1445 8.44952C63.7834 9.00682 63.2036 9.10876 60.3488 9.10876C57.8707 9.10876 57.3216 9.04112 56.8827 8.65257C56.4747 8.29743 56.3491 7.67242 56.3491 5.94858C56.3491 4.22475 56.4747 3.68412 56.9137 3.29558C57.3372 2.99142 58.0119 2.89033 60.4268 2.89033C64.4892 2.89033 64.5513 2.92461 64.5513 5.86418C64.5513 7.41834 64.4575 8.00994 64.1433 8.44952" fill="currentColor"></path><path d="M48.0854 8.8725C47.631 9.07555 47.2696 9.09223 44.8234 9.09223C41.6553 9.09223 41.4048 8.88918 41.4048 6.085C41.4048 4.19238 41.4987 3.71945 41.8593 3.31332C42.2672 2.95819 42.769 2.8738 45.4664 2.8738C48.3368 2.8738 48.5872 2.99247 48.6345 4.25919H51.8027V3.87065C51.8027 2.14682 51.3948 1.11656 50.5323 0.643628C49.5917 0.170696 48.6974 0.0687256 44.6668 0.0687256C41.6088 0.0687256 40.5734 0.220802 39.6009 0.829111C38.4561 1.53851 38.1265 2.65403 38.1265 5.74656C38.1265 9.2109 38.4398 10.4442 39.5062 11.1703C40.4005 11.7786 41.404 11.9307 44.5248 11.9307C46.6895 11.9307 47.9908 11.914 48.6493 11.8464C50.3586 11.7277 51.2373 11.2548 51.6608 10.2412C51.8803 9.71724 51.9276 9.14326 51.943 7.4361H48.7439C48.7439 8.29757 48.5554 8.65271 48.0854 8.8725Z" fill="currentColor"></path><path d="M18.0971 0.246254V11.7531C18.0971 11.8041 18.1281 11.8375 18.1755 11.8375H21.3436C21.3909 11.8375 21.4219 11.8041 21.4219 11.7531V0.246254C21.4219 0.195269 21.3909 0.161865 21.3436 0.161865H18.1755C18.1281 0.161865 18.0971 0.195269 18.0971 0.246254Z" fill="currentColor"></path><path d="M0.185818 11.7367C0.153997 11.8044 0.170315 11.8378 0.23314 11.8378H3.96591C3.99692 11.8378 4.04424 11.8044 4.05974 11.7701L5.09513 9.97941C5.11716 9.94076 5.17182 9.91177 5.20528 9.91177H12.8944C12.9417 9.91177 12.9727 9.94511 12.9727 9.99614V11.7534C12.9727 11.8044 13.0037 11.8378 13.051 11.8378H16.2037C16.251 11.8378 16.282 11.8044 16.282 11.7534V0.246498C16.282 0.195514 16.251 0.162109 16.2037 0.162109H10.2868C8.49907 0.162109 6.6323 1.59849 5.76988 2.95048L0.185818 11.7367ZM11.07 3.01729H12.8936C12.9409 3.01729 12.9719 3.05069 12.9719 3.10168V6.97126C12.9719 7.02229 12.9409 7.0557 12.8936 7.0557H7.51266C7.19851 7.0557 7.00354 7.06795 6.75634 7.17349L6.71308 7.0917C7.15613 6.69349 7.25807 6.46322 7.36822 6.29442L8.57581 4.40181C9.04659 3.6757 9.84618 3.01641 11.0692 3.01641" fill="currentColor"></path></g><defs><clipPath id="clip0_649_935"><rect width="68" height="12" fill="white"></rect></clipPath></defs></svg>