<?xml version="1.0" encoding="UTF-8"?>
<svg id="Layer_1" data-name="Layer 1" xmlns="http://www.w3.org/2000/svg" viewBox="0 0 840.34 855.92">
  <path d="M27.31,136.46l.73,436.63c.01,8.52,7.66,15.35,16.9,15.1l95.17-2.56c8.93-.24,16.01-7.01,15.94-15.24l-30.12-213.06c-3.11-22.78,5.07-45.96,23.17-61.75,7.06-6.15,14.91-10.48,22.74-10.48l112.9,18.57c9.42.02,16.93-7.24,16.45-15.91l-3.4-61c-.44-7.92-7.45-14.18-16.06-14.35l-125.01-.11c-8.27-.16-15.13-5.95-16.01-13.53l-1.95-16.88c-1.08-9.36,7.26-17.36,17.45-16.69,53.51,3.55,148.43,21.51,161.53-9.29,7.34-17.27,16.96-57.03,12.56-88.36-.01-.08-.02-.18-.03-.28-5.06-51.79-65.1-82.7-115.59-59.41l-111.22,51.85C36.81,86.09,26.84,104.59,27.31,136.46Z"/>
  <path d="M282.02,443.41c-.42,2.57-.42,5.23.37,7.73,2.2,6.94,8.67,12,16.55,12.34l127.78,2.93c10.42.45,19.41-7.5,19.92-17.62l-22.77-261.93c-.79-9.07-.12-18.19,1.98-27.08h0c6.15-25.99,31.54-44.52,60.4-43.48.25,0,.5.02.75.03l74.46,4.55c10.92,1.33,27.51,1.78,28.06-8.92l4.22-72.32c.55-10.91-8.92-19.57-20.15-18.41l-100.48,10.37c-4.83.5-9.31,2.79-12.51,6.4l-13.9,15.69c-8.49,9.58-23.99,8.38-30.29-2.34h0c-5.59-9.52-18.75-11.76-27.75-4.72l-.8.63c-10.79,8.43-18.6,19.75-21.81,32.44-1.51,5.96-4.49,18.57-7.78,32.83"/>
  <path d="M485.56,136.61l266.74,27.81c7.21,2.04,11.87,8.65,11.09,15.74l-18.93,171.22c-.94,8.46-9.18,14.46-18.05,13.13l-226.4-41.89c-9.28-1.39-15.18-10.16-12.59-18.72l5.97-19.71c2.1-6.93,9.14-11.43,16.71-10.69l188.52,31.4c8.88.88,16.75-5.44,17.28-13.89l.04-.71c.48-7.55-5.11-14.22-12.98-15.49l-140.61-16.88c-8.06-1.3-13.7-8.26-12.94-15.97l1.62-16.48c.87-8.88,9.76-15.04,18.95-13.14l134.1,17.68c9.37,1.93,18.36-4.49,18.99-13.55l.55-7.93c.57-8.32-6.2-15.44-14.99-15.77l-234.95.26c-9.82-.37-16.84-9.11-14.61-18.17l6.74-27.38c2.05-8.33,11.1-13.31,19.75-10.87Z"/>
  <path d="M154.81,361.8l55.44,198.3c4.49,12.79-.99,26.24-11.94,29.35l-80.27,22.73c-10.84,3.07-16.33,16.3-12.06,29.01l56.99,169.32c4.9,14.55,19.98,21.16,30.52,13.37l138.93-102.6c7.41-5.47,10.11-16.46,6.56-26.64l-111.33-359.3c-4.25-12.17-15.9-19.05-26.1-15.39l-35.88,12.86c-10.3,3.69-15.18,16.71-10.87,29Z"/>
  <path d="M487.81,379.61l-1.96,109.09c-.23,12.98-13.83,22.63-29.66,21.04l-75.61-7.55c-15.67-1.57-29.19,7.87-29.65,20.7l-4.38,119.81c-.54,14.72,16.13,26.48,33.7,23.76l164.42-25.43c12.29-1.9,21.07-10.47,21.28-20.78l4.84-236.53c.25-12.37-11.77-23.01-26.9-23.8l-27.99-1.47c-15.26-.8-27.86,8.7-28.08,21.17Z"/>
  <path d="M833.61,475.03c11.78-18.85,7.47-29.1-8.17-32.77l-68.93-30.05c-8.14-1.91-16.74,1.17-21.6,7.75-21.24,28.72-35.85,178.22-48.37,172.95-10.52-4.42,2.04-140.31,5.37-175.36.98-10.27-7.85-18.9-18.68-19.5l-44.06-2.45c-13.91-.77-24.66,11.73-20.98,24.42,12.56,43.26,43.09,141.24,35.47,186.59-7.07,42.07-261.99,131.06-349.57,173.93-13.1,6.41-14.95,23.45-3.55,32l52.39,39.31c6.85,5.14,16.49,5.43,23.83.72l300.34-192.83c18.17-11.67,34-26.33,46.71-43.29l119.79-141.43Z"/>
</svg>