<?xml version="1.0" encoding="UTF-8"?>
<svg id="Layer_1" data-name="Layer 1" xmlns="http://www.w3.org/2000/svg" viewBox="0 0 840.34 855.92">
  <defs>
    <style>
      .cls-1 {
        fill: #fff;
      }
    </style>
  </defs>
  <path class="cls-1" d="M154.96,220.67l.46,299.82c0,5.85,4.84,10.54,10.69,10.37l60.18-1.76c5.65-.16,10.12-4.81,10.08-10.46l-19.05-146.3c-1.96-15.64,3.21-31.56,14.65-42.4,4.46-4.23,9.43-7.2,14.38-7.2l71.39,12.75c5.96.01,10.71-4.97,10.4-10.92l-2.15-41.89c-.28-5.44-4.71-9.74-10.16-9.85l-79.05-.07c-5.23-.11-9.57-4.09-10.12-9.29l-1.24-11.59c-.69-6.42,4.59-11.92,11.04-11.46,33.84,2.44,93.86,14.77,102.14-6.38,4.64-11.86,10.73-39.16,7.94-60.68,0-.06-.01-.12-.02-.19-3.2-35.57-41.16-56.79-73.09-40.8l-70.33,35.6c-42.15,18.1-48.46,30.8-48.16,52.69Z"/>
  <path class="cls-1" d="M316.02,431.45c-.27,1.77-.27,3.59.24,5.31,1.39,4.76,5.48,8.24,10.47,8.47l80.8,2.01c6.59.31,12.27-5.15,12.6-12.1l-14.4-179.86c-.5-6.23-.08-12.49,1.26-18.59h0c3.89-17.85,19.94-30.57,38.2-29.86.16,0,.32.01.48.02l47.08,3.13c6.9.91,17.4,1.22,17.74-6.12l2.67-49.66c.35-7.49-5.64-13.44-12.74-12.64l-63.54,7.12c-3.05.34-5.89,1.92-7.91,4.39l-8.79,10.78c-5.37,6.58-15.17,5.76-19.15-1.61h0c-3.54-6.54-11.86-8.07-17.55-3.24l-.51.43c-6.82,5.79-11.76,13.56-13.79,22.28-.95,4.09-2.84,12.75-4.92,22.55"/>
  <path class="cls-1" d="M444.74,220.78l168.67,19.09c4.56,1.4,7.51,5.94,7.01,10.81l-11.97,117.57c-.59,5.81-5.8,9.93-11.41,9.02l-143.16-28.76c-5.87-.95-9.6-6.98-7.96-12.86l3.77-13.54c1.33-4.76,5.78-7.85,10.56-7.34l119.21,21.56c5.62.6,10.59-3.74,10.93-9.54l.03-.49c.3-5.18-3.23-9.76-8.21-10.64l-88.92-11.59c-5.1-.9-8.66-5.67-8.18-10.97l1.02-11.32c.55-6.1,6.17-10.33,11.98-9.03l84.8,12.14c5.92,1.33,11.61-3.08,12.01-9.31l.34-5.44c.36-5.71-3.92-10.6-9.48-10.83l-148.57.18c-6.21-.25-10.65-6.25-9.24-12.48l4.26-18.8c1.3-5.72,7.02-9.14,12.49-7.47Z"/>
  <path class="cls-1" d="M235.58,375.41l35.06,136.17c2.84,8.78-.63,18.02-7.55,20.15l-50.76,15.61c-6.85,2.11-10.33,11.19-7.62,19.92l36.04,116.27c3.1,9.99,12.63,14.53,19.3,9.18l87.85-70.45c4.68-3.76,6.39-11.31,4.15-18.3l-70.4-246.73c-2.69-8.36-10.06-13.08-16.5-10.57l-22.69,8.83c-6.51,2.53-9.6,11.48-6.87,19.91Z"/>
  <path class="cls-1" d="M446.16,387.64l-1.24,74.91c-.15,8.91-8.75,15.54-18.76,14.45l-47.81-5.19c-9.91-1.07-18.46,5.41-18.75,14.22l-2.77,82.27c-.34,10.11,10.2,18.18,21.31,16.32l103.97-17.46c7.77-1.31,13.32-7.19,13.45-14.27l3.06-162.42c.16-8.49-7.44-15.8-17.01-16.35l-17.7-1.01c-9.65-.55-17.62,5.97-17.76,14.53Z"/>
  <path class="cls-1" d="M664.83,453.17c7.45-12.94,4.73-19.98-5.17-22.5l-43.59-20.64c-5.15-1.31-10.58.8-13.66,5.32-13.43,19.72-22.67,122.38-30.58,118.76-6.65-3.04,1.29-96.35,3.4-120.42.62-7.05-4.96-12.98-11.81-13.39l-27.86-1.68c-8.8-.53-15.59,8.05-13.26,16.77,7.94,29.7,27.25,96.99,22.43,128.13-4.47,28.89-165.67,89.99-221.05,119.44-8.28,4.4-9.45,16.1-2.25,21.97l33.13,26.99c4.33,3.53,10.43,3.73,15.07.49l189.92-132.41c11.49-8.01,21.5-18.08,29.54-29.72l75.75-97.11Z"/>
</svg>