<svg width="247" height="70" viewBox="0 0 247 70" fill="none" xmlns="http://www.w3.org/2000/svg">
<path d="M100.365 9.26607C100.92 9.23399 101.447 9.20405 102.017 9.17234C113.653 8.61958 127.246 9.16348 139.877 9.96137C145.289 10.3162 150.497 10.8 155.256 11.3225C160.408 11.9042 157.777 11.7816 161.328 12.2178C165.922 12.797 170.31 13.3588 174.719 14.0005C176.972 14.3285 179.208 14.6657 181.511 15.042C183.766 15.4134 180.917 15.2296 183.28 15.6157C189.064 16.5941 194.71 17.4454 200.436 19.0315C206.191 20.7901 210.73 23.9471 215.543 26.4877C217.341 27.4745 218.708 28.709 219.996 29.992C222.244 32.273 224.118 34.7373 225.87 37.2615C229.262 42.0075 228.628 48.2091 226.925 52.8426C225.209 56.5744 222.36 57.1164 220.136 58.1616C217.798 59.0663 215.497 59.7469 213.184 60.4084C198.075 64.5313 182.712 65.4561 167.444 66.4404C137.289 68.023 107.081 68.4479 76.5362 68.1396C69.3996 68.0372 62.2697 67.863 55.0986 67.4555C47.2439 67.0098 38.692 66.1758 30.1465 64.316C24.9586 63.2122 19.7381 61.9148 14.6108 60.2337C12.0505 59.388 9.50569 58.4493 7.03205 57.2945C5.79661 56.7129 4.57506 56.0811 3.38437 55.3003C2.24316 54.404 0.856695 53.9533 0.136065 51.4567C-0.147663 49.3155 -0.0067023 47.2506 0.739626 45.1769C2.51348 41.6013 5.23885 40.4328 7.62899 38.8374C9.95041 37.4755 8.45772 38.0899 8.89479 37.8167C15.8245 33.8225 13.6956 35.5048 18.3848 33.3573C21.0929 32.1629 23.8586 30.9988 26.677 29.8406C42.8004 23.6906 60.5964 21.4612 76.4068 18.8702C77.3283 18.7289 78.2609 18.5888 79.1708 18.4544C87.4272 17.2753 79.0807 17.9566 87.4388 17.1093C88.0188 17.0527 85.951 17.5509 88.2215 17.2893C93.3702 16.6809 103.136 15.5882 107.136 15.2366C114.842 14.5477 116.115 14.4409 123.411 13.8759C129.505 13.4183 136.317 13.0211 143.131 12.7067C147.481 12.5055 151.828 12.3397 156 12.1979C158.291 12.1222 155.245 11.9619 158.902 11.8267C162.566 11.6745 172.246 11.6056 175.509 11.706C178.782 11.7878 177.379 11.9682 177.962 12.0165C179.883 12.1856 182.884 12.2395 185.845 12.2751C190.1 12.4587 193.665 11.8532 195.857 13.1728C195.919 13.2208 195.971 13.2636 196.013 13.3C200.42 18.5749 197.859 24.0792 196.811 28.6383C195.364 33.3066 193.409 37.6466 191.091 41.7402C184.313 50.168 174.499 50.2405 166.004 52.7426C160.265 54.0708 154.439 55.1558 148.482 56.163C138.384 57.86 127.859 59.2887 117.483 60.3961C108.873 61.3125 100.357 61.9794 92.2823 62.3323C85.6288 62.6226 79.2876 62.7132 73.0803 62.5933C63.2011 62.3859 53.6776 61.6975 43.8598 60.1258C40.1354 59.5147 36.3663 58.6951 32.6097 57.3671C30.5133 56.5855 32.8675 57.8051 30.312 56.7851C28.1678 55.888 26.0809 54.7698 24.1577 53.4441C14.7084 46.7134 17.0039 34.743 17.2098 25.7758C17.8588 19.0733 23.492 15.6843 27.5248 12.425C35.9486 6.61295 45.5793 5.31453 54.7471 3.05269C56.2433 2.71943 57.7563 2.44124 59.263 2.20407C62.0849 1.78194 58.4915 2.58374 61.3079 2.1964C70.1609 1.03264 81.6753 0.7882 92.1419 0.589244C102.056 0.405842 111.05 0.409527 116.041 1.54972e-05C127.718 0.297955 141.874 1.08368 152.269 2.15952C158.172 2.77611 153.796 2.62797 158.314 3.00252C158.925 3.055 159.696 3.11846 160.675 3.19923C162.535 3.35551 160.144 2.88034 162.929 3.1374C174.664 4.23449 187.425 6.04974 198.903 8.23424C201.244 8.68368 200.639 8.34781 201.314 8.44872C206.94 9.24566 215.962 12.2455 217.894 12.9911C217.975 13.0189 218.056 13.0466 218.136 13.0743C228.756 16.8223 237.844 21.3248 242.885 30.3132C244.698 33.5553 245.942 37.2166 246.401 41.2302C246.677 44.7299 246.708 40.5516 246.861 43.9587C246.873 45.4201 246.77 46.9056 246.441 48.4004C246.074 50.386 244.748 52.7672 242.695 53.7994C240.723 54.866 238.768 55.2094 236.879 55.5893C228.634 57.0848 220.331 57.5036 212.189 57.7298C208.621 57.8174 205.063 57.8354 201.566 57.7911C197.897 57.7344 201.273 57.5192 199.52 57.4765C191.797 57.2415 190.067 57.6241 182.667 57.1453C181.106 57.0371 181.997 56.8787 181.713 56.8397C177.286 56.2267 173.392 56.4381 172.247 56.3613C169.904 56.2056 167.7 56.0275 165.588 55.8342C154.682 54.8157 146.366 53.5149 134.722 52.1151C133.059 51.9124 136.772 52.6538 132.101 52.0649C121.015 50.6526 109.718 49.0349 98.417 47.1504C83.6202 44.6707 68.7928 41.6969 54.5257 37.7636C49.0923 36.2481 43.7178 34.5607 38.6714 32.1025C34.3126 29.7858 37.5309 31.2544 37.2618 31.0945C34.2977 29.1849 32.1097 27.5948 31.0755 25.8085C30.6394 25.0547 30.4514 24.3437 30.3989 23.8052C30.2243 19.6356 33.0508 16.7929 35.3496 14.4255C42.3498 8.87824 50.361 9.4049 56.113 7.96964C56.3273 7.92954 56.543 7.88966 56.7596 7.84992C70.02 6.63343 83.1735 6.96598 96.3155 7.00829C108.097 7.10421 119.902 7.553 131.61 9.06502C144.322 10.8975 157.412 13.1384 168.481 20.5736C174.246 25.1828 174.874 32.5545 176.391 38.7039C177.628 43.9422 176.693 49.4854 174.67 54.2873C173.338 57.3267 170.674 59.0547 168.234 60.655C167.667 61.0116 168.542 60.1564 167.411 60.8603C165.265 62.1689 163.486 63.1427 162.034 63.9994C153.588 67.7028 154.143 67.0794 145.368 68.7424C143.659 69.0077 139.679 69.1455 136.878 69.1796C135.329 69.2015 134.137 69.1707 133.882 69.1685C131.262 69.1234 133.958 68.6369 133.082 68.6431C125.876 68.6029 127.052 69.8463 117.297 69.6567C116.992 69.6467 118.279 69.4523 117.461 69.4086C114.924 69.2712 112.405 69.2726 109.926 69.0921C108.374 68.9784 107.098 68.8396 105.886 68.6981C102.662 68.3125 99.8925 67.9387 93.5884 67.6781C92.4902 67.6121 94.1 68.5371 85.4387 67.6103C83.3072 67.3801 76.6693 66.5951 70.927 65.7134C67.3739 65.1775 64.1602 64.6339 62.5418 64.3421C58.3148 63.5717 61.2608 63.8473 60.9601 63.7864C49.6252 61.4609 53.9646 62.0961 48.3691 60.5636C42.789 58.9803 44.1459 60.3184 41.8108 59.9403C40.9641 59.7988 39.3423 59.4373 37.5369 58.9804C34.3151 58.1985 30.5818 56.8367 29.3694 56.2567C27.4696 55.3753 29.9248 56.254 28.2397 55.4796C23.0819 52.9063 22.1413 51.5148 21.6388 51.4476C21.1977 51.2828 21.5467 51.9218 20.5 51.1244C20.3464 51.0041 20.171 50.8537 19.9687 50.653C16.3309 46.8405 16.7056 41.869 17.0382 37.9584C17.5905 33.2891 20.7335 30.0181 23.8571 26.864C25.5699 25.2181 24.0482 26.4342 25.5805 24.9727C27.5846 23.1052 29.4225 21.6015 31.1884 20.1529C35.0985 17.1398 39.5557 16.2233 45.7765 14.843C46.8092 14.6182 50.5262 13.7626 54.3964 13.1982C56.279 12.9188 58.196 12.7434 59.8317 12.706C60.5368 12.6954 58.5586 13.0537 62.1089 12.8C67.4056 12.4154 76.9583 12.0882 82.657 11.9199C86.8631 11.791 82.0365 11.5548 87.3347 11.5687C89.6892 11.5822 85.3301 11.8244 89.7524 11.8383C90.3224 11.8409 91.0031 11.8417 91.7725 11.8419C96.9445 11.8177 105.956 11.9619 109.68 12.102C113.952 12.2477 111.622 11.9232 111.969 11.9182C114.063 11.8844 122.264 12.199 122.987 12.2597C128.637 12.602 134.207 13.0435 139.725 13.5587C156.853 15.1956 173.439 17.3247 189.967 20.0523C200.153 22.1935 211.846 22.9902 219.56 31.3379C221.206 33.1948 221.152 35.7346 220.831 37.8784C220.274 40.6933 220.899 38.8798 220.817 39.3098C219.534 44.0591 218.868 44.3533 218.707 44.442C218.459 44.4935 218.43 44.2369 216.815 47.0532C216.797 47.0836 216.779 47.1143 216.76 47.1452C216.806 47.1162 216.845 47.0966 216.877 47.0866C216.941 47.066 216.976 47.0859 216.984 47.1451C217.171 47.6571 214.792 51.1042 209.482 53.5051C206.509 54.8915 208.206 54.3278 207.945 54.475C203.559 56.6507 200.17 57.1656 199.328 57.3623C196.188 58.0144 192.93 59.2578 190.783 59.6224C188.64 59.9829 193.387 58.4377 187.143 60.0741C185.435 60.7082 190.201 59.9779 185.472 61.2814C184.293 61.6055 183.052 61.941 181.744 62.2921C168.078 65.8306 148.04 63.6483 132.849 62.8097C126.881 62.405 121.611 61.9774 117.713 61.6651C102.918 60.4496 98.1418 60.0033 89.5368 59.1199C74.0008 57.4583 79.6622 58.3812 69.995 57.5176C60.3011 56.6082 65.103 56.243 63.7378 55.8996C62.3913 55.5537 60.8781 55.576 59.202 55.2716C57.5238 54.9659 61.2072 55.2758 57.2278 54.7593C56.1468 54.6178 54.5332 54.4381 52.773 54.2503C47.9989 53.7616 41.9969 52.9886 40.9535 52.9317C37.9461 52.7527 42.6861 54.3306 32.3024 51.8368C31.7113 51.6789 33.6885 51.9361 31.4332 51.342C26.0274 49.7646 20.1295 48.2402 16.0205 43.7939C14.3717 41.89 13.0212 39.7008 11.8571 37.512C10.7869 35.3848 12.2118 33.3844 13.2128 31.8321C20.0677 25.8836 28.9167 24.2652 36.7976 21.0834C36.8567 21.0622 36.9131 21.0421 36.9671 21.023C39.1021 20.2831 37.1806 21.2389 38.5463 20.7682C53.2906 16.3044 47.9454 17.6444 56.1237 15.3154C54.9176 16.0219 56.775 15.9106 61.8648 15.2864C64.1303 15.0179 67.0358 14.6802 70.6204 14.4409C77.6265 14.0725 76.4128 13.9091 80.9669 13.6989C82.3323 13.635 87.3048 13.9854 88.2135 13.9061C91.2174 13.6439 86.5454 12.7918 98.6067 13.8168C99.1317 13.866 97.4387 13.9754 99.2574 14.1289C101.075 14.2843 102.623 14.4161 104.043 14.5318C111.751 15.1831 114.46 15.1151 125.236 16.2574C135.215 17.314 152.878 19.7827 164.19 21.3582C163.883 21.9969 173.13 23.1473 177.947 23.4195C178.32 23.4409 178.662 23.4566 178.97 23.4659C186.299 24.5858 194.239 25.7549 201.151 27.9669C203.508 28.7834 201.884 28.4613 202.175 28.5817C204.142 29.4336 205.792 30.2486 207.132 30.944C208.829 31.8129 209.888 32.8612 210.436 33.5943C211.944 35.6533 212.654 38.0479 213.141 40.3406C214.342 46.0497 211.787 51.4637 208.529 55.4856C204.097 60.0379 198.062 61.3122 192.361 63.3814C190.171 64.1052 187.921 64.7647 185.612 65.3824C185.042 65.522 184.231 66.2987 179.792 66.8108C179.507 66.8328 184.845 65.5806 177.171 67.0198C174.77 67.4373 171.688 67.8837 168.25 68.2292C162.412 68.7923 155.554 69.1811 149.287 68.6221C148.463 68.5282 147.65 68.4186 146.843 68.1554C146.447 68.0158 146.017 67.8513 145.663 67.4514C145.28 67.0329 145.302 66.3986 145.362 66.0326C145.391 65.8087 145.434 65.5836 145.486 65.3668C146.003 62.5182 150.025 57.0629 153.602 53.1692C154.079 52.6521 153.703 53.3442 154.412 52.5998C156.024 50.9061 156.859 49.5494 158.181 47.9122C158.731 47.2312 159.407 46.5229 160.294 45.8025C162.917 43.5988 168.254 39.8319 176.023 35.5846C177.144 34.965 178.314 34.3329 179.531 33.6858C179.837 33.5237 181.968 32.0097 185.086 30.5846C190.056 28.2966 197.243 25.3469 202.547 23.2345C205.089 22.2217 203.37 22.6354 203.809 22.4556C205.878 21.6186 207.905 20.8219 209.863 20.0777C217.392 17.1233 224.809 15.9976 232.389 16.6942C233.921 16.7722 235.635 17.2263 236.686 18.5204C240.327 22.9092 238.055 29.1735 235.438 34.4002C235.374 34.5262 235.307 34.6511 235.238 34.7748C234.076 38.6458 224.395 43.8298 217.528 45.0976C215.149 45.657 214.267 45.6723 213.615 45.6298C212.21 45.4565 212.076 45.3048 200.272 47.4289C194.022 48.5108 186.352 50.8054 175.618 51.6721C174.353 51.7744 173.072 51.847 171.736 51.8865C161.764 52.8755 151.943 53.1785 142.379 51.7691C133.743 50.5902 125.178 49.2279 116.463 47.8213C110.969 46.942 105.394 46.2484 99.718 45.571C98.6074 45.4384 95.0441 45.4175 92.4376 45.0672C88.5666 44.5451 86.4767 44.0523 83.7162 43.6396C82.1559 43.4044 80.614 43.1673 79.0906 42.9203C69.41 41.21 59.9037 39.6566 51.6754 34.2075C51.5637 34.1282 51.4594 34.0525 51.3615 33.9801C48.4582 31.527 49.2269 32.4059 46.45 28.3852C46.0414 27.6695 45.7066 26.9578 45.4855 26.24C45.3592 25.7843 45.7428 25.3388 46.082 25.0062C46.4401 24.6647 46.8474 24.3752 47.2712 24.1113C49.6707 22.6479 52.7183 22.0152 56.9614 22.2976C59.5478 22.4824 62.0871 23.0384 64.7825 23.7545C67.5051 24.4841 70.3247 25.5564 73.3954 27.0759C73.8229 26.7168 78.26 28.5277 84.7456 33.8264C84.7833 33.8569 84.821 33.8874 84.8585 33.9181C86.1018 34.9666 84.9183 33.666 85.5142 34.1609C87.9409 36.2042 89.5837 38.7247 90.8493 41.4478C91.1516 42.1143 91.3408 42.0838 91.5716 42.6457C91.9535 43.5893 92.2689 44.7123 92.4778 45.8781C93.0191 48.7195 91.7709 51.7035 90.4048 53.5339C88.8715 55.2055 87.2873 55.0563 86.8081 55.2468C81.3729 56.0389 78.8566 56.2914 74.6878 56.6078C70.5292 56.8664 76.7215 56.1739 71.8677 56.5374C71.6685 56.5523 71.4663 56.5675 71.2611 56.5831C61.2963 57.2718 48.6213 57.1097 38.5904 56.7343C34.5024 56.5626 37.2803 56.9335 36.6946 56.915C36.2409 56.8986 35.7664 56.8793 35.3138 56.8592C27.2964 56.5183 19.4951 55.607 15.0361 55.2589C10.7793 53.1709 9.85322 54.4402 4.88142 51.0063C3.40699 49.9388 3.45851 47.5619 3.75887 45.0966C3.86177 44.1462 4.57077 43.0097 4.37804 46.6308C4.35478 47.8889 4.28808 49.571 5.34159 50.4372C7.50139 52.4576 10.6774 53.5561 13.8209 54.0969C14.9676 54.3912 21.8135 54.7017 22.7401 54.7104C30.0449 55.1038 31.0382 55.9903 31.409 56.0861C32.5044 56.2905 33.8459 56.4281 35.3303 56.517C39.6416 56.7821 44.7693 56.548 46.4223 56.5446C55.6081 56.5199 63.5639 56.5932 71.1987 55.881C71.9838 55.8023 72.753 55.7234 73.5196 55.642C79.0265 55.0431 79.5306 54.4301 83.7486 53.887C85.9741 53.597 88.4125 53.0078 88.7622 52.4267C90.2195 50.3645 90.8676 48.1435 90.6029 46.2085C90.0042 41.9095 88.177 38.0678 83.9766 34.7455C82.8845 33.8926 81.7037 33.0241 80.3865 32.1617C77.8904 30.7815 80.2133 32.2671 71.5034 27.3105C71.1362 27.1231 68.0386 25.5382 64.5684 24.7967C62.7943 24.4018 60.9812 24.1193 59.5226 24.0519C58.9781 24.0283 58.9716 24.2205 58.2603 24.1711C54.2532 23.9654 51.204 23.9246 48.1455 25.6002C47.8895 25.7519 47.6366 25.9219 47.426 26.0926C47.22 26.252 47.0394 26.4688 47.0639 26.4562C47.0708 26.4459 47.1016 26.4019 47.1304 26.2841C47.1596 26.1703 47.171 25.9631 47.1153 25.7713C47.8597 28.0491 50.0037 30.5268 52.5587 32.3418C54.4288 33.6897 56.5976 34.8002 58.7928 35.744C62.0724 37.1869 66.5336 38.7764 68.2256 39.2764C72.0477 40.4429 76.2274 40.9856 79.3138 41.5398C80.0924 41.6803 80.8073 41.8248 81.4279 41.9831C84.4973 42.7519 78.3222 42.3357 86.4828 43.7108C86.8599 43.2542 87.6207 42.8369 88.1807 42.4016C97.7011 43.7207 107.191 44.8544 116.692 46.4124C125.03 47.8059 133.35 49.1307 141.799 50.2467C142.166 50.2963 142.417 50.3233 142.579 50.3332C143.407 50.3807 142.189 50.0291 144.157 50.2768C154.049 51.415 162.949 51.1916 173.37 50.1077C174.054 50.0332 174.718 49.956 175.418 49.8706C182.965 48.9464 191.06 47.7233 198.76 46.4885C201.834 46.3507 207.518 45.5913 213.251 44.1895C217.275 43.1796 221.408 41.9919 224.747 40.6268C227.571 39.4095 227.44 39.6103 229.296 38.5451C232.653 36.3617 232.882 35.2029 233.029 34.9395C233.108 34.6131 232.811 34.8385 233.295 33.9643C233.387 33.7894 233.472 33.6165 233.553 33.444C235.109 30.0979 235.901 27.9414 236.411 25.8973C236.839 23.9015 237.231 21.7404 235.554 19.5257C234.94 18.71 233.946 18.2422 232.313 18.1508C231.967 18.1313 231.612 18.1129 231.248 18.0964C230.566 17.9502 223.041 18.6647 222.086 19.0318C215.714 20.4352 220.977 18.9294 216.951 19.8073C214.619 20.3925 212.54 21.0603 210.508 21.7939C206.114 23.3923 201.916 25.0125 196.229 27.5245C193.796 28.5974 188.101 31.4559 183.337 33.3971C182.71 33.6522 182.961 33.3074 182.465 33.5314C179.78 34.7521 177.929 35.7227 176.53 36.5333C173.245 38.4688 172.291 39.4135 169.131 41.6377C166.073 43.7865 162.061 46.8218 159.97 49.328C158.857 50.6161 157.982 51.5822 157.585 52.0082C154.689 55.1096 158.804 50.241 159.69 49.1063C159.775 48.9998 159.83 48.9302 159.842 48.911C160.443 47.9478 160.177 48.121 159.467 48.9294C158.368 50.2194 156.207 52.916 154.353 55.1576C153.398 55.2988 149.226 60.6546 151.182 59.0671C151.388 58.8814 153.705 55.9 154.353 55.1576C152.899 57.9165 148.847 62.0476 147.444 66.348C147.412 66.5014 147.415 66.5545 147.401 66.4752C147.393 66.3984 147.304 66.2036 147.234 66.1449C147.086 66.0282 147.255 66.2025 147.5 66.2944C148.01 66.5108 148.754 66.6803 149.498 66.8178C149.88 66.8882 150.272 66.952 150.672 67.012C154.432 67.3905 150.818 68.0079 162.496 67.3977C166.588 67.0646 166.266 66.7846 168.053 66.4301C168.575 66.3212 169.281 66.1987 170.328 66.0386C176.825 65.0395 184.534 63.6758 191.752 61.4709C196.261 60.0711 200.732 58.6415 204.18 56.6023C207.214 54.5381 204.22 56.3816 206.086 54.8934C206.363 54.6388 206.609 54.3785 206.815 54.117C209.999 50.0948 212 45.4775 211.027 40.7752C210.784 39.6062 210.476 38.4552 210.04 37.3701C209.805 36.833 210.147 38.2165 209.338 36.4092C208.559 34.8224 207.475 33.6049 206.075 32.8238C197.66 28.3234 187.587 27.4279 177.613 25.754C173.089 25.0898 168.447 24.4385 163.558 23.7827C154.913 22.612 139.397 20.7945 130.417 19.7397C122.105 18.753 112.768 17.6158 103.85 16.7467C96.0667 15.9883 88.582 15.461 82.3944 15.3941C73.7326 15.3873 75.6467 15.7208 71.9733 16.0279C69.1939 16.3049 65.5965 16.6305 62.1369 17.0919C56.7734 17.7771 51.7981 18.6828 50.7818 18.8733C50.7189 18.8406 57.9834 17.2644 54.0724 17.9458C51.7575 18.1645 50.8622 18.856 50.7818 18.8733C50.0063 18.9866 42.6718 20.7913 37.5965 22.7284C35.391 23.5403 33.5572 24.223 32.7311 24.5451C31.2261 25.1323 32.153 25.0375 31.3657 25.3408C25.6727 27.6572 18.4163 29.971 15.2114 33.1926C14.1816 34.5943 13.7373 36.2545 14.0061 36.2883C15.2338 38.5361 16.3893 40.3617 17.9411 42.1394C23.5304 47.6454 33.7033 49.2475 42.562 51.0098C42.9088 51.0741 42.3373 51.2427 43.1598 51.3905C46.7482 52.0314 49.9476 52.4703 52.9542 52.8215C59.6171 53.592 65.283 54.042 71.9537 54.634C81.64 55.4874 89.2971 56.2916 94.9863 57.2772C102.294 57.9114 112.758 59.005 118.786 59.5812C124.819 60.1609 125.686 59.6959 126.222 59.7262C128.616 59.846 130.883 59.9605 133.016 60.0672C145.733 60.6114 154.919 61.7304 169.431 61.2601C172.515 61.0991 176.775 60.7624 181.064 59.6492C188.298 57.7736 196.266 55.6861 201.324 53.9407C207.575 51.672 212.266 50.2035 214.972 46.0526C214.983 46.0324 214.994 46.0121 215.004 45.9919C215.392 45.2471 214.792 45.8868 214.905 45.6573C217.643 39.4211 216.64 42.5647 217.311 41.3186C218.618 38.3067 219.752 35.0628 218.063 32.7054C216.743 31.1496 215.371 29.8351 212.92 28.5919C211.183 27.5708 205.27 26.2981 201.579 25.4857C196.738 24.3864 198.662 24.5185 193.511 23.5727C193.086 23.5039 193.122 23.6687 189.961 23.1217C189.8 23.0943 189.637 23.0669 189.473 23.0394C174.746 20.6108 158.535 18.5015 143.081 17.0061C140.946 16.8035 143.656 17.3418 140.572 17.0587C140.187 17.0238 139.801 16.9892 139.416 16.955C125.256 15.6777 109.843 14.8281 96.0913 14.6961C92.614 14.6626 94.7932 14.4668 94.038 14.4091C93.3267 14.3569 92.5681 14.3272 91.7927 14.3152C87.4957 14.2448 82.6402 14.7118 81.7219 14.7438C72.0807 15.0813 63.225 15.4033 54.8508 16.4716C47.135 17.6749 38.5427 18.3098 33.0219 22.358C28.0842 26.5664 22.0211 31.0952 20.4061 36.8839C20.3608 37.0864 20.2732 37.5448 20.2637 38.1601C20.0865 41.12 20.5175 46.7626 22.8121 48.6165C23.4026 49.2032 23.9176 49.7075 24.3573 50.1393C24.5116 50.3914 27.8743 53.3782 31.9964 54.3395C32.2479 54.3827 29.5663 53.2761 34.3807 54.8517C35.5105 55.1939 36.825 55.5412 38.2729 55.8774C43.1435 57.0093 49.3769 58.2247 54.851 59.4583C57.1037 59.9643 62.4024 61.4354 69.2718 62.114C69.3901 62.125 70.2186 62.188 71.4392 62.288C74.8508 62.5823 81.3164 63.0728 84.0371 63.8115C84.6367 63.9612 83.9229 64.5975 92.1313 65.043C93.6993 65.1153 90.8759 64.7374 94.9983 64.9924C98.2517 65.184 102.046 65.4463 106.031 65.6217C109.795 65.7884 113.721 65.9144 117.498 65.8766C118.86 65.865 124.635 65.573 129.227 65.8128C129.95 65.8492 128.587 66.0935 131.011 66.0601C132.884 66.0275 134.76 65.9567 136.623 65.8233C144.864 65.0864 154.09 64.8301 160.582 61.5139C161.906 60.7525 163.214 60.0249 164.48 59.2922C167.94 57.1866 166.518 58.6602 169.759 56.2595C170.638 55.5347 171.708 54.4923 172.199 53.3047C173.925 49.4164 174.603 44.4166 174.02 41.4883C173.636 39.3539 173.407 39.5875 173.223 39.4358C173.028 39.2858 172.766 38.7383 172.016 35.5383C170.858 30.643 169.429 25.8533 166.253 23.5361C156.557 17.0231 143.473 14.4713 131.142 12.6974C119.664 11.1614 108.008 10.6477 96.2901 10.539C96.1902 10.5381 96.0903 10.5373 95.9903 10.5364C91.5585 10.5004 95.2288 10.7133 88.704 10.686C79.7127 10.7162 68.0967 10.5257 56.5675 11.7439C49.7837 12.6869 41.6555 13.4257 37.8323 16.9506C35.0728 19.5279 33.1453 22.9616 34.0977 24.3172C37.0586 28.587 45.1975 31.1204 49.9996 32.8375C52.7675 33.7616 54.4485 34.2655 55.3865 34.5782C57.0613 35.1278 56.292 35.0125 55.3183 34.8306C54.0465 34.5888 52.4486 34.2314 55.2536 35.0703C55.8749 35.2529 56.7361 35.4978 57.8562 35.8032C63.7898 37.4315 70.4137 38.2594 71.8734 38.556C82.2453 40.6683 90.3316 42.2363 98.9867 43.7233C102.164 44.2649 105.426 44.789 108.911 45.3005C111.579 45.6896 109.001 45.0379 111.277 45.3703C119.046 46.4981 127.205 47.7398 134.652 48.6667C137.993 49.0795 137.401 48.8078 140.474 49.1996C147.825 50.1252 154.324 50.9308 161.492 51.808C162.147 51.8874 157.705 51.7068 163.159 52.2369C164.04 52.3207 164.966 52.4085 165.885 52.4945C174.188 53.2758 183.969 54.0765 193.124 54.1736C196.141 54.192 196.268 53.7883 202.743 54.1312C204.1 54.1813 202.376 54.7863 209.913 54.1945C210.184 54.172 210.964 54.114 212.08 54.0305C216.261 53.7486 225.102 52.9372 229.935 52.635C231.112 52.5722 233.631 52.516 236.224 52.1331C237.208 51.9874 238.181 51.8012 239.034 51.5362C239.244 51.4696 238.91 51.5012 238.845 51.4517C238.763 51.3957 239.048 51.3039 240.165 50.8605C241.787 50.1529 242.308 49.4419 242.753 47.5714C243.712 42.6631 242.465 36.7304 239.814 32.0309C238.591 29.8557 237.049 27.9186 235.222 26.2372C233.206 24.4833 236.072 27.2434 232.993 24.7297C228.738 21.4702 222.926 18.9052 216.881 16.9223C210.524 14.8391 203.907 13.2844 198.087 12.0708C193.895 11.2168 196.836 11.5846 196.533 11.5012C191.678 10.1929 188.655 10.2141 187.006 9.97237C176.749 8.51364 168.918 7.3573 159.381 6.49791C158.528 6.42262 158.144 6.41608 157.998 6.4392C157.879 6.45825 157.918 6.49747 157.989 6.53695C158.099 6.59797 158.282 6.6597 158.066 6.64841C158.037 6.64682 158.008 6.64525 157.979 6.64368C152.659 6.36661 156.682 6.30172 153.262 5.96385C143.628 5.02799 132.835 4.43647 123.047 4.13592C119.446 4.02897 123.482 4.43119 120.254 4.33706C111.003 4.0841 101.573 3.98927 92.2095 4.1459C82.2173 4.33804 72.2799 4.59263 62.9062 5.718C59.4969 6.16661 61.6113 5.66013 60.8921 5.7147C59.2394 5.85218 57.3557 6.16352 55.5593 6.59698C51.8518 7.48235 48.382 8.55246 47.3047 8.86218C40.0121 11.0352 36.9315 11.5658 31.538 14.6258C31.0096 14.9562 30.5032 15.3057 30.0254 15.6773C25.9811 18.8155 21.5319 22.2099 21.3919 26.047C21.0214 34.8894 19.7942 45.6817 26.5457 49.9687C31.6474 53.5266 38.0542 55.2097 44.4814 56.2755C54.2489 57.8522 63.999 58.4954 73.1445 58.675C76.6216 58.7405 80.0201 58.7361 83.3128 58.6824C95.2213 58.4793 106.352 57.6883 117.089 56.6147C133.622 54.8923 149.324 52.788 165.164 49.1908C173.181 47.0604 183.643 45.5572 187.833 39.8897C188.229 39.1911 188.62 38.4662 188.994 37.7414C190.079 35.5872 188.746 37.6367 189.652 35.7724C191.31 32.2704 192.72 28.627 193.609 24.9867C194.54 21.5404 194.616 17.0258 193.363 16.2861C193.379 16.3002 193.48 16.3717 193.554 16.4084C193.63 16.4479 193.675 16.4625 193.684 16.4657C193.702 16.4705 193.608 16.4444 193.49 16.4243C193.249 16.3814 192.905 16.3418 192.56 16.3104C191.86 16.2471 191.106 16.2045 190.346 16.1673C188.835 16.095 187.294 16.0465 185.742 16.0022C171.648 15.6041 157.526 15.8444 143.323 16.5695C141.018 16.6879 138.709 16.8193 136.397 16.963C134.118 17.1064 137.416 17.1699 133.768 17.4132C126.29 17.9159 116.819 18.642 109.266 19.2754C105.582 19.5857 110.497 18.8868 106.789 19.2074C98.1538 19.963 88.9203 21.0003 80.1264 22.2951C76.3902 22.8532 82.0701 22.3007 77.2115 23.0148C77.151 23.0238 77.0905 23.0329 77.0301 23.042C60.3825 25.6925 43.4479 27.9551 28.3486 33.8151C19.936 37.5044 8.73523 41.7225 4.70795 46.6737C4.25986 47.8195 4.10765 49.4855 4.29294 50.8408C4.23454 50.5255 4.16997 50.5061 4.20761 50.5538C4.23758 50.6035 4.33884 50.7289 4.46616 50.8549C4.7299 51.1192 5.11882 51.427 5.54328 51.7184C6.38932 52.2998 7.39871 52.8541 8.43702 53.3635C10.5256 54.3833 12.7516 55.2517 15.0483 56.0528C17.1804 56.7795 18.9348 57.9381 23.7037 59.0459C24.1007 58.9883 24.1252 58.8091 24.3224 58.6901C26.5346 59.2344 28.7614 59.732 31.0013 60.1935C45.8332 63.3231 61.219 63.5192 76.5892 63.8065C106.7 64.0949 136.936 63.7124 167.184 62.0755C168.056 62.0241 168.901 61.9724 169.754 61.9183C171.824 61.7841 168.246 61.7297 172.222 61.4645C185.748 60.4639 199.177 59.3351 211.866 55.8201C214.101 55.1813 216.316 54.5201 218.371 53.728C220.359 53.029 222.468 51.6696 222.434 51.2768C223.901 47.2473 224.201 43.0405 222.032 39.9333C221.973 39.846 221.914 39.7593 221.855 39.6729C220.512 37.8666 221.812 38.2389 217.361 33.3665C217.014 33.0359 215.409 31.3012 213.509 30.2875C210.452 28.6769 207.091 26.7791 205.766 26.1687C205.444 26.0249 206.964 27.0683 204.076 25.5937C202.428 24.7781 200.767 24.0544 199.134 23.5889C191.246 21.4854 182.517 20.3788 173.986 19.062C164.743 17.6926 155.473 16.5522 146.404 15.7472C143.281 15.4762 146.63 15.4827 144.404 15.2915C142.808 15.1574 141.197 15.0365 139.574 14.9299C127.232 14.1545 114.155 13.7152 102.273 14.1117C100.212 14.201 98.1821 14.2856 96.214 14.3838C86.1899 15.0678 89.8699 14.271 84.5862 14.8819C83.8061 14.8634 78.0271 17.0613 77.6629 17.0732C76.6225 16.8501 79.142 14.9434 77.7125 14.8458C77.33 14.7318 69.7931 18.9101 74.1388 16.2061C74.3909 15.9739 80.0969 13.1647 81.6609 12.6782C82.7048 12.2684 80.6894 12.6073 82.8616 11.8526C85.0541 11.1307 87.5837 10.8506 91.2031 10.3588C94.8114 9.91091 93.2301 9.70595 100.365 9.26607ZM145.951 61.8468C151.539 62.3599 152.392 61.4968 146.345 61.4283C146.051 61.4251 145.66 61.8201 145.951 61.8468ZM123.616 48.2874C130.805 49.8192 135.843 49.9453 130.78 48.8919C125.719 47.824 121.431 47.8186 123.616 48.2874ZM50.3567 32.1726C50.8467 32.6344 51.3317 33.0341 51.7981 33.3827C54.3446 35.2403 56.1161 35.7046 56.2728 35.5712C56.468 35.3859 55.044 34.6607 52.2556 32.7566C51.9631 32.5498 51.6643 32.3318 51.3492 32.0903C50.9564 31.7924 50.0071 31.8379 50.3567 32.1726ZM109.368 12.7014C109.298 12.679 104.764 12.7483 104.664 12.7773C102.27 13.1097 111.292 12.9545 109.368 12.7014ZM88.4594 54.0237C88.8713 53.8663 89.4207 53.5995 89.7689 53.1053C91.8967 50.4824 91.6378 45.6944 91.3296 48.3255C91.1534 49.4533 90.4453 51.493 89.4895 52.9169C89.0752 53.5631 88.2044 53.9036 87.8827 54.0795C87.5272 54.246 87.6445 54.3047 88.4594 54.0237ZM24.3337 27.0073C24.2419 27.0394 22.0168 29.4033 22.1407 29.4253C22.4208 29.3762 25.517 26.1251 24.3337 27.0073ZM33.3179 30.1246C26.8668 29.5714 21.2363 29.5841 17.4937 29.7389C12.4002 32.6735 11.1085 33.1407 17.1522 29.1736C17.2084 29.139 17.3703 29.086 17.4361 29.0801C19.0301 28.9253 21.0599 28.8121 23.5375 28.7979C27.2924 28.711 15.4537 29.421 20.2359 29.3221C28.0412 29.4842 33.4753 28.0191 40.9743 31.2301C40.9758 31.2328 40.9803 31.2409 40.9817 31.2436C41.4072 32.0472 41.696 32.9981 41.8515 33.9392C41.9174 34.6231 41.7276 33.1294 40.6643 31.4114C38.1041 29.9109 33.8939 30.2984 33.2845 30.1232C33.2956 30.1236 33.3067 30.1241 33.3179 30.1246ZM149.126 63.0773C149.244 63.0996 153.726 63.2907 153.848 63.277C156.298 63.0881 147.221 62.7084 149.126 63.0773ZM175.466 51.0055C175.51 50.8917 176.332 48.2797 176.515 45.5343C176.755 42.792 176.259 40.0476 176.211 39.8868C175.346 37.2255 176.447 41.1206 176.162 45.1661C175.952 49.2138 174.475 53.1616 175.466 51.0055ZM164.367 21.4015C168.881 21.7398 174.191 22.4228 177.973 23.2413C178.314 23.3144 178.64 23.3881 178.948 23.4623C178.624 23.4138 178.295 23.3651 177.962 23.3163C173.455 22.6558 168.91 22.0274 164.367 21.4015Z" fill="white" fill-opacity="0.46"/>
<rect x="17.5048" y="13.2131" width="202" height="43.3153" rx="21.6577" fill="black"/>
<rect x="17.5048" y="13.2131" width="202" height="43.3153" rx="21.6577" fill="#EF4F15"/>
<path d="M76.8632 32.2131H75.1019C74.9977 31.7064 74.8154 31.2614 74.555 30.8778C74.2993 30.4943 73.9868 30.1724 73.6175 29.9119C73.2529 29.6468 72.8481 29.4479 72.403 29.3153C71.9579 29.1828 71.4939 29.1165 71.011 29.1165C70.1303 29.1165 69.3325 29.339 68.6175 29.7841C67.9073 30.2292 67.3415 30.8849 66.9201 31.7514C66.5034 32.6179 66.2951 33.6809 66.2951 34.9403C66.2951 36.1998 66.5034 37.2628 66.9201 38.1293C67.3415 38.9957 67.9073 39.6515 68.6175 40.0966C69.3325 40.5417 70.1303 40.7642 71.011 40.7642C71.4939 40.7642 71.9579 40.6979 72.403 40.5653C72.8481 40.4328 73.2529 40.2363 73.6175 39.9759C73.9868 39.7107 74.2993 39.3864 74.555 39.0028C74.8154 38.6146 74.9977 38.1695 75.1019 37.6676H76.8632C76.7307 38.411 76.4892 39.0762 76.1388 39.6634C75.7884 40.2505 75.3528 40.75 74.832 41.1619C74.3112 41.5691 73.7264 41.8793 73.0777 42.0923C72.4338 42.3054 71.7449 42.4119 71.011 42.4119C69.7704 42.4119 68.6672 42.1089 67.7013 41.5028C66.7354 40.8968 65.9755 40.035 65.4215 38.9176C64.8675 37.8002 64.5905 36.4744 64.5905 34.9403C64.5905 33.4063 64.8675 32.0805 65.4215 30.9631C65.9755 29.8456 66.7354 28.9839 67.7013 28.3778C68.6672 27.7718 69.7704 27.4688 71.011 27.4688C71.7449 27.4688 72.4338 27.5753 73.0777 27.7884C73.7264 28.0014 74.3112 28.3139 74.832 28.7259C75.3528 29.1331 75.7884 29.6302 76.1388 30.2173C76.4892 30.7997 76.7307 31.465 76.8632 32.2131ZM83.914 42.4403C82.9292 42.4403 82.0651 42.206 81.3217 41.7372C80.5831 41.2685 80.0054 40.6127 79.5887 39.7699C79.1768 38.9271 78.9708 37.9422 78.9708 36.8153C78.9708 35.679 79.1768 34.687 79.5887 33.8395C80.0054 32.992 80.5831 32.3338 81.3217 31.8651C82.0651 31.3963 82.9292 31.1619 83.914 31.1619C84.8989 31.1619 85.7606 31.3963 86.4992 31.8651C87.2426 32.3338 87.8203 32.992 88.2322 33.8395C88.6489 34.687 88.8572 35.679 88.8572 36.8153C88.8572 37.9422 88.6489 38.9271 88.2322 39.7699C87.8203 40.6127 87.2426 41.2685 86.4992 41.7372C85.7606 42.206 84.8989 42.4403 83.914 42.4403ZM83.914 40.9347C84.6621 40.9347 85.2777 40.7429 85.7606 40.3594C86.2436 39.9759 86.601 39.4716 86.8331 38.8466C87.0651 38.2216 87.1811 37.5445 87.1811 36.8153C87.1811 36.0862 87.0651 35.4067 86.8331 34.777C86.601 34.1473 86.2436 33.6383 85.7606 33.25C85.2777 32.8617 84.6621 32.6676 83.914 32.6676C83.1659 32.6676 82.5504 32.8617 82.0674 33.25C81.5845 33.6383 81.227 34.1473 80.995 34.777C80.763 35.4067 80.647 36.0862 80.647 36.8153C80.647 37.5445 80.763 38.2216 80.995 38.8466C81.227 39.4716 81.5845 39.9759 82.0674 40.3594C82.5504 40.7429 83.1659 40.9347 83.914 40.9347ZM93.0919 35.6506V42.2131H91.4158V31.304H93.0351V33.0085H93.1772C93.4328 32.4546 93.8211 32.0095 94.3419 31.6733C94.8628 31.3324 95.5351 31.1619 96.359 31.1619C97.0976 31.1619 97.7439 31.3135 98.2979 31.6165C98.8519 31.9148 99.2827 32.3693 99.5905 32.9801C99.8983 33.5862 100.052 34.3532 100.052 35.2813V42.2131H98.376V35.3949C98.376 34.5379 98.1535 33.8703 97.7084 33.3921C97.2633 32.9091 96.6525 32.6676 95.876 32.6676C95.341 32.6676 94.8628 32.7836 94.4414 33.0156C94.0247 33.2476 93.6956 33.5862 93.4541 34.0313C93.2127 34.4763 93.0919 35.0161 93.0919 35.6506ZM107.859 31.304V32.7244H102.206V31.304H107.859ZM103.854 28.6903H105.53V39.0881C105.53 39.5616 105.598 39.9167 105.736 40.1534C105.878 40.3854 106.058 40.5417 106.276 40.6222C106.498 40.6979 106.732 40.7358 106.979 40.7358C107.163 40.7358 107.315 40.7263 107.433 40.7074C107.552 40.6837 107.646 40.6648 107.717 40.6506L108.058 42.1563C107.945 42.1989 107.786 42.2415 107.582 42.2841C107.379 42.3314 107.121 42.3551 106.808 42.3551C106.335 42.3551 105.871 42.2533 105.416 42.0497C104.966 41.8461 104.592 41.536 104.294 41.1193C104 40.7027 103.854 40.1771 103.854 39.5426V28.6903ZM113.591 42.4688C112.9 42.4688 112.272 42.3385 111.709 42.0781C111.145 41.813 110.698 41.4318 110.366 40.9347C110.035 40.4328 109.869 39.8267 109.869 39.1165C109.869 38.4915 109.992 37.9849 110.239 37.5966C110.485 37.2036 110.814 36.8958 111.226 36.6733C111.638 36.4508 112.092 36.285 112.589 36.1761C113.091 36.0625 113.596 35.9725 114.102 35.9063C114.765 35.821 115.303 35.7571 115.714 35.7145C116.131 35.6671 116.434 35.589 116.624 35.4801C116.818 35.3712 116.915 35.1818 116.915 34.9119V34.8551C116.915 34.1544 116.723 33.6099 116.339 33.2216C115.961 32.8333 115.385 32.6392 114.614 32.6392C113.813 32.6392 113.186 32.8144 112.731 33.1648C112.277 33.5152 111.957 33.8892 111.773 34.2869L110.182 33.7188C110.466 33.0559 110.845 32.5398 111.318 32.1705C111.796 31.7964 112.317 31.536 112.881 31.3892C113.449 31.2377 114.008 31.1619 114.557 31.1619C114.907 31.1619 115.31 31.2046 115.764 31.2898C116.223 31.3703 116.666 31.5384 117.092 31.794C117.523 32.0497 117.881 32.4356 118.165 32.9517C118.449 33.4678 118.591 34.1591 118.591 35.0256V42.2131H116.915V40.7358H116.83C116.716 40.9725 116.526 41.2259 116.261 41.4957C115.996 41.7656 115.643 41.9953 115.203 42.1847C114.763 42.3741 114.225 42.4688 113.591 42.4688ZM113.847 40.9631C114.509 40.9631 115.068 40.8329 115.523 40.5724C115.982 40.312 116.328 39.9759 116.56 39.5639C116.796 39.152 116.915 38.7188 116.915 38.2642V36.7301C116.844 36.8153 116.687 36.8935 116.446 36.9645C116.209 37.0308 115.935 37.09 115.622 37.1421C115.314 37.1894 115.014 37.232 114.72 37.2699C114.431 37.303 114.197 37.3314 114.017 37.3551C113.581 37.4119 113.174 37.5043 112.795 37.6321C112.421 37.7552 112.118 37.9422 111.886 38.1932C111.659 38.4394 111.545 38.7756 111.545 39.2017C111.545 39.7841 111.761 40.2244 112.192 40.5227C112.627 40.8163 113.179 40.9631 113.847 40.9631ZM126.082 42.4403C125.059 42.4403 124.179 42.1989 123.44 41.7159C122.701 41.233 122.133 40.5677 121.735 39.7202C121.338 38.8726 121.139 37.9044 121.139 36.8153C121.139 35.7074 121.342 34.7296 121.75 33.8821C122.162 33.0298 122.734 32.3646 123.468 31.8864C124.207 31.4034 125.069 31.1619 126.054 31.1619C126.821 31.1619 127.512 31.304 128.127 31.5881C128.743 31.8722 129.247 32.2699 129.64 32.7813C130.033 33.2926 130.277 33.8892 130.372 34.571H128.696C128.568 34.0739 128.284 33.6335 127.843 33.25C127.408 32.8617 126.821 32.6676 126.082 32.6676C125.429 32.6676 124.856 32.8381 124.363 33.179C123.876 33.5152 123.494 33.991 123.22 34.6065C122.95 35.2173 122.815 35.9347 122.815 36.7585C122.815 37.6013 122.948 38.3352 123.213 38.9602C123.483 39.5852 123.861 40.0706 124.349 40.4162C124.841 40.7618 125.419 40.9347 126.082 40.9347C126.518 40.9347 126.913 40.8589 127.268 40.7074C127.623 40.5559 127.924 40.3381 128.17 40.054C128.416 39.7699 128.591 39.429 128.696 39.0313H130.372C130.277 39.6752 130.043 40.2552 129.669 40.7713C129.299 41.2827 128.809 41.6899 128.198 41.9929C127.592 42.2912 126.887 42.4403 126.082 42.4403ZM137.566 31.304V32.7244H131.913V31.304H137.566ZM133.561 28.6903H135.237V39.0881C135.237 39.5616 135.305 39.9167 135.443 40.1534C135.585 40.3854 135.765 40.5417 135.983 40.6222C136.205 40.6979 136.439 40.7358 136.686 40.7358C136.87 40.7358 137.022 40.7263 137.14 40.7074C137.259 40.6837 137.353 40.6648 137.424 40.6506L137.765 42.1563C137.652 42.1989 137.493 42.2415 137.289 42.2841C137.086 42.3314 136.828 42.3551 136.515 42.3551C136.042 42.3551 135.578 42.2533 135.123 42.0497C134.673 41.8461 134.299 41.536 134.001 41.1193C133.707 40.7027 133.561 40.1771 133.561 39.5426V28.6903ZM145.94 27.6676H148.042L152.985 39.7415H153.156L158.099 27.6676H160.201V42.2131H158.554V31.1619H158.412L153.866 42.2131H152.275L147.73 31.1619H147.588V42.2131H145.94V27.6676ZM168.08 42.4403C167.028 42.4403 166.122 42.2083 165.359 41.7443C164.602 41.2756 164.017 40.6222 163.605 39.7841C163.198 38.9413 162.994 37.9612 162.994 36.8438C162.994 35.7263 163.198 34.7415 163.605 33.8892C164.017 33.0322 164.59 32.3646 165.324 31.8864C166.062 31.4034 166.924 31.1619 167.909 31.1619C168.477 31.1619 169.038 31.2566 169.592 31.446C170.146 31.6354 170.651 31.9432 171.105 32.3693C171.56 32.7907 171.922 33.3494 172.192 34.0455C172.462 34.7415 172.597 35.5985 172.597 36.6165V37.3267H164.187V35.8778H170.892C170.892 35.2623 170.769 34.7131 170.523 34.2301C170.281 33.7472 169.936 33.366 169.486 33.0867C169.041 32.8073 168.515 32.6676 167.909 32.6676C167.241 32.6676 166.664 32.8333 166.176 33.1648C165.693 33.4915 165.321 33.9176 165.061 34.4432C164.801 34.9688 164.67 35.5322 164.67 36.1335V37.0994C164.67 37.9233 164.812 38.6217 165.097 39.1946C165.385 39.7628 165.785 40.196 166.297 40.4943C166.808 40.7879 167.402 40.9347 168.08 40.9347C168.52 40.9347 168.918 40.8731 169.273 40.75C169.633 40.6222 169.943 40.4328 170.203 40.1818C170.464 39.9261 170.665 39.6089 170.807 39.2301L172.426 39.6847C172.256 40.2339 171.969 40.7169 171.567 41.1335C171.164 41.5455 170.667 41.8674 170.075 42.0994C169.483 42.3267 168.818 42.4403 168.08 42.4403Z" fill="white"/>
</svg>
