<svg width="68" height="66" viewBox="0 0 68 66" fill="none" xmlns="http://www.w3.org/2000/svg">
<path d="M9.71004 59.4C11.0867 57.7321 12.9898 55.6219 14.4583 54.0457C14.9198 53.5498 14.7753 53.8782 15.0972 53.5393C15.7272 52.876 16.2418 52.2036 16.872 51.5524C17.0807 51.3375 16.9635 51.7287 17.1794 51.501C18.3596 50.2545 19.3929 48.9993 20.5611 47.7094C26.3147 41.3582 31.8921 35.0546 37.6923 28.5958C39.6039 26.467 42.0244 23.9666 43.9431 21.7206C44.1649 21.4606 43.9192 21.5143 43.9535 21.4577C44.5028 20.5647 44.4986 21.0158 44.9761 20.542C46.8735 18.6588 48.8721 16.4675 50.5635 14.5383C51.2874 13.7129 50.3285 14.3242 51.1976 13.6216C51.2574 13.573 51.1851 13.8827 51.4 13.6739C51.8752 13.2125 52.747 12.2301 53.1097 11.8597C53.8324 11.1213 53.9274 11.0177 54.5997 10.307C55.0313 9.85248 55.555 9.33001 56.0454 8.84165C56.5897 8.29783 57.115 7.77344 57.609 7.24689C57.8118 7.03012 57.4178 7.20022 57.7367 6.83934C58.0662 6.46577 58.9812 5.58 59.3158 5.31276C59.6611 5.03282 59.6115 5.25591 59.6877 5.22273C60.2906 4.97502 61.1795 3.70741 61.3168 3.58437C61.9308 3.00334 62.5635 2.45703 63.2739 1.97449C63.6389 1.73156 64.0078 1.50409 64.4861 1.32346C64.7408 1.23335 65.0051 1.15019 65.3921 1.155C65.7535 1.14389 66.3117 1.36778 66.5708 1.71556C67.0816 2.42242 67.0149 2.89733 67.0506 3.34834C67.0573 3.79992 67.021 4.19269 66.9755 4.59594C66.8821 5.38737 66.745 6.15284 66.6127 6.92603C66.5947 7.03023 66.5765 7.13594 66.558 7.2432C66.1397 9.68111 65.6484 12.2792 65.0862 14.5579C64.4119 17.2802 63.6991 19.5344 62.9239 22.1377C62.8413 22.4127 63.1204 22.1455 63.0192 22.4826C61.9473 26.0448 60.7001 29.5386 59.227 32.9337C59.0786 33.2748 59.1004 32.7683 58.9427 33.1054C58.9064 33.1833 58.869 33.2629 58.8306 33.3442C57.8689 35.412 56.2597 38.3723 56.3052 39.8422C55.6116 41.2265 54.7042 42.8857 53.8715 44.0093C53.3326 44.7322 53.6293 43.8927 53.1218 44.8709C53.0051 45.0905 53.3106 44.9004 53.1241 45.2235C52.3353 46.5864 51.2946 47.9572 50.3163 49.2018C50.1164 49.4559 50.2799 49.4831 50.2379 49.5688C49.8851 50.2903 48.6986 50.9583 48.4733 51.1125C46.7426 52.3751 45.4216 53.2923 43.4544 53.8847C42.9947 54.0095 43.5915 54.0469 43.143 54.1695C41.0805 54.726 38.7866 54.4796 36.8832 53.6966C36.6228 53.592 36.364 53.4771 36.1072 53.353C35.6433 53.1238 36.1414 53.1708 35.9283 53.0545C35.0234 52.5387 34.6763 52.6904 33.8348 52.1036C33.6657 51.9821 33.8388 51.9266 33.8148 51.8936C33.4484 51.3815 32.8166 51.3526 32.6936 51.2753C31.043 50.2221 30.3212 49.1359 28.9287 47.9245C28.7607 47.7764 29.0082 48.2483 28.5467 47.8258C25.4789 44.9982 22.6641 41.6092 20.2627 38.2964C19.8908 37.7819 20.2727 38.0591 20.261 38.0176C20.064 37.3487 19.5388 37.2195 19.4025 37.0615C18.34 35.8157 17.6726 34.4136 16.6975 33.7465C13.0251 28.3746 9.37979 22.9945 6.40293 17.2777C6.20778 16.9028 6.02078 16.5354 5.84198 16.175C5.8032 16.0979 6.02654 16.1525 5.94612 15.9946C5.0052 14.1232 4.97944 14.6065 4.03324 13.5254C3.79761 13.2578 3.64637 12.1392 3.62591 12.035C3.55952 11.679 3.94564 11.8846 3.91048 11.7723C3.62549 10.8644 2.9516 11.3708 2.38672 10.2084C2.37055 10.1716 2.58042 10.2579 2.54731 10.1542C2.44867 9.83972 2.24629 9.55158 2.15907 9.23687C1.95598 8.49621 2.21033 8.10364 1.56513 7.13337C1.48817 7.01133 1.11884 7.39544 0.737367 6.28895C0.567075 5.86104 -0.0236731 3.84064 0.000693932 3.18831C-0.0128752 2.5634 0.167546 2.98489 0.170108 2.94052C0.233264 2.10051 0.413122 1.85478 0.5217 1.72819C0.645435 1.60857 0.735947 1.56383 1.0389 1.31499C1.50311 1.01096 1.31236 0.817422 1.26797 0.556491C1.25497 0.475314 1.26194 0.395608 1.32931 0.3275C1.45745 0.187534 1.88646 -0.000667274 2.30196 0.000558823C2.71995 -0.00923708 3.08039 0.111303 3.21682 0.164534C3.4874 0.277035 3.11858 0.298634 3.35889 0.382985C4.83173 1.05344 4.15891 0.274706 4.72008 0.3666C6.04905 0.678855 6.62154 1.66869 7.54604 2.34246C7.80034 2.53086 7.65797 2.29124 7.88908 2.43541C8.81801 3.02537 9.25607 3.54845 10.3366 4.18623C10.5114 4.28816 11.5121 4.67042 11.8712 5.25367C11.9231 5.33775 11.6353 5.27263 11.9846 5.59046C12.4954 6.05554 13.4587 6.88537 14.0513 7.3273C14.4975 7.66033 14.1458 7.08527 14.6418 7.59005C14.8547 7.80882 14.3433 7.53981 14.7512 7.94429C14.881 8.07313 15.0847 8.2583 15.3205 8.46751C15.8018 8.8947 16.4273 9.4313 16.7132 9.67627C17.1417 10.0433 17.0154 9.71882 17.0568 9.74033C17.3129 9.87986 18.162 10.5206 18.2397 10.5899C21.8503 13.7471 24.9357 16.9462 28.4175 20.0545C28.6905 20.2988 28.628 20.0076 28.6709 20.0436C29.6394 20.8467 28.6063 20.5055 29.1434 21.2134C29.2873 20.8739 29.6216 21.2707 30.295 21.848C30.6187 22.1252 30.5409 21.8688 30.5787 21.8853C31.1786 22.1673 31.3202 22.6609 31.366 22.7777C31.5364 23.209 32.0274 23.349 32.1445 23.6407C32.2618 23.9313 31.6513 23.6247 32.2706 24.2036C32.5289 24.2763 32.2923 23.6086 32.7974 24.0117C34.7041 25.53 37.8165 28.8382 39.2076 30.2085C40.5965 31.5743 41.0687 31.9974 41.852 32.8133C43.2763 34.2986 42.8982 33.6002 43.8925 34.408C44.8837 35.2141 44.0294 35.2109 44.0721 35.4293C44.1138 35.6467 44.3465 35.69 44.4582 35.8957C44.5691 36.1006 44.1637 35.8278 44.5202 36.2103C44.8812 36.5967 46.0638 37.4317 46.2945 37.4712C46.7738 37.545 46.5168 36.8806 47.4386 37.9257C47.492 37.9865 47.1958 37.9147 47.406 38.142C48.1813 38.9787 49.0089 39.8345 49.813 40.6673C50.7375 41.6236 51.6219 42.5466 52.4962 43.5121C52.7179 43.7581 52.3871 43.6691 52.5144 43.8133C53.8577 45.3408 53.5529 44.6143 54.5622 45.19C54.0775 45.3106 54.32 45.9343 55.3706 47.0468C56.0057 47.7225 56.025 47.469 56.5364 47.8221C56.6898 47.9276 57.0319 48.488 57.1815 48.5203C57.661 48.6159 57.4812 47.9325 58.458 49.2013C58.4999 49.2569 58.2342 49.1992 58.3875 49.3835C59.3803 50.5866 59.7279 50.5184 60.8568 51.7827C61.7394 52.7689 63.0793 54.7231 63.9383 55.9631C63.5303 56.2215 64.4426 57.2996 65.0394 57.5985C65.5797 58.4241 66.1519 59.3087 66.5886 60.1535C66.7377 60.4419 66.5093 60.328 66.5166 60.3709C66.5372 60.4941 66.5696 60.6002 66.6096 60.6925C66.7906 61.1069 67.1204 61.3014 67.2021 61.4658C67.6312 62.2518 67.7741 63.4948 67.0049 64.1798C65.7026 65.1146 64.4461 64.774 63.1148 64.8814C63.0453 64.8834 62.8545 65.2102 62.3122 64.9011C62.2756 64.8791 63.0174 64.8129 61.9846 64.6777C60.9528 64.5421 59.0992 64.0257 57.6734 63.8734C57.3166 63.836 56.4109 63.9153 55.7851 63.5477C55.7015 63.4982 55.8225 63.4274 55.7044 63.3443C55.32 63.0771 55.0066 63.3521 54.5856 62.9507C54.1534 62.5463 53.1817 62.0809 51.7568 61.9082C51.7094 61.9015 51.3124 62.0754 50.8837 61.9549C50.1852 61.759 49.2282 61.4359 48.4998 61.232C48.1582 61.1365 48.3311 61.3595 48.2709 61.3457C45.9246 60.7776 44.3156 60.1464 41.8617 59.3347C41.4073 59.1842 40.0495 59.0076 39.2133 58.5586C38.3175 58.0725 39.5491 57.5966 37.281 57.0909C36.371 56.8867 34.928 57.5256 33.4906 56.4966C32.9755 56.3546 32.4649 56.2017 31.956 56.0411C29.4176 55.2398 27.0674 54.2615 24.4504 53.4797C24.3079 53.4369 23.7684 53.5499 23.4478 53.4271C22.9744 53.2451 22.7565 53.0181 22.4141 52.8798C21.0101 52.3075 19.6349 51.8963 18.2858 51.3315C17.7625 51.1122 17.996 51.0556 17.3813 50.7949C16.7818 50.5394 16.2709 50.5281 15.4892 50.0981C14.8709 49.76 14.4142 49.1498 13.5944 48.7373C13.4146 49.0659 12.8388 48.8047 11.7996 48.4355C11.6019 48.3655 11.7508 48.5774 11.6545 48.5504C11.2458 48.4358 10.9454 48.1764 10.5687 48.0791C10.4773 48.0553 10.4187 48.1688 10.3375 48.1541C9.64796 48.0368 8.79968 47.3014 8.65662 47.1735C8.10559 46.6877 7.72865 46.682 7.27524 46.3646C6.81787 46.0436 7.59336 46.3403 7.04409 46.0041C5.91202 45.3102 4.42168 44.5131 3.27576 43.8045C2.83245 43.5305 3.04588 43.8615 2.98027 43.8256C1.99455 43.2695 1.20837 42.5073 0.506349 42.3548C0.495465 41.7695 0.38364 41.6921 0.183868 41.5698L0.145284 41.7197C0.289148 41.4945 0.558377 41.0915 1.37772 40.9711C1.5098 40.955 1.73694 41.3201 1.32 41.4941C1.03736 41.6186 0.623247 41.7123 0.291882 41.9341L0.415777 41.4528C0.449866 41.5226 0.604923 41.6739 0.769192 41.7795C0.881014 41.865 1.80011 42.0761 1.91821 42.1232C2.78652 42.5045 2.56051 43.0789 2.59021 43.1424C2.86623 43.762 4.03462 43.9728 4.29716 44.0893C5.50983 44.64 6.45223 45.2436 7.47453 45.6676C8.15635 45.9504 8.38286 45.6086 8.8963 45.8804C10.5617 46.7523 10.9122 47.5426 12.7357 47.8377C13.1237 47.8976 12.977 47.3485 14.0647 48.2152C14.1369 48.2719 14.9313 48.9702 15.555 49.0168C15.6335 49.0228 15.6822 48.9029 15.7769 48.9316C16.4003 49.1213 16.7563 49.3834 17.4348 49.6115C18.0967 49.8325 18.9256 50.0903 19.654 50.4273C20.1034 50.6347 20.5912 51.0846 20.7876 51.2243C21.3436 51.6234 22.1044 51.6153 22.4115 51.9515C22.7263 52.2913 21.8529 52.2988 22.8297 52.8087C22.9857 52.508 23.1941 52.2174 23.3735 51.9234C25.5869 52.7614 27.7465 53.6378 30.0039 54.3778C30.2871 54.4702 30.0552 54.2022 30.3607 54.2967C31.035 54.5051 31.6555 54.7398 32.3011 54.9728C32.8626 55.1752 33.4278 55.373 34.0423 55.5449C35.086 55.8369 36.2561 56.0082 37.3445 56.3003C37.8737 56.8708 39.5054 57.2444 40.6566 57.6349C41.0561 57.7705 40.9968 57.8597 41.2737 57.9796C42.3353 58.4337 41.9187 57.9506 42.2334 57.9906C43.5644 58.1553 43.4649 58.9301 44.9817 59.3603C45.0675 59.3853 46.1441 59.2742 46.2952 59.2913C47.2045 59.3824 46.3996 59.4706 46.928 59.6554C47.8836 59.9891 48.5356 60.2774 49.7308 60.4854C50.0699 60.5429 50.9544 60.5213 51.5462 60.8847C51.624 60.9324 51.5422 61.0508 51.6081 61.0767C52.8408 61.5424 52.9633 61.1315 53.7241 61.1784C54.4608 61.2191 55.5005 61.7758 55.7124 61.9126C56.2593 62.2685 55.2274 61.893 55.2008 61.9076C54.7662 62.065 55.5863 62.2213 56.1996 62.3863C56.1854 62.813 57.0745 62.9902 56.8379 62.5548C56.8104 62.5072 56.3144 62.4331 56.1996 62.3863C56.8318 62.1132 57.7969 62.2809 58.7638 62.8679C59.2313 63.1421 58.7052 63.2637 60.2339 63.4658C60.9206 63.5491 60.718 63.2236 61.3126 63.2379C62.6918 63.2659 64.51 63.7522 65.6438 63.4668C65.9924 63.3577 65.6257 63.2985 65.8219 63.2197C65.9294 63.1714 65.9753 63.1262 65.9511 63.1521C66.0553 63.0461 66.0851 63.0174 66.1135 62.9057C66.139 62.7955 66.1192 62.5838 66.0125 62.3367C65.9869 62.2794 65.8809 62.4745 65.8082 62.2752C65.7022 61.9996 65.5499 61.6969 65.381 61.3951C64.5242 59.8613 63.7011 58.4482 62.5773 56.9108C61.9182 55.9969 60.6016 54.4805 59.8575 53.5697C58.5882 51.9952 57.0759 49.954 55.8487 48.7221C55.0344 47.9027 55.097 48.2136 54.6775 47.9315C53.8732 47.3937 53.0028 45.9304 52.8802 45.7192C52.8795 45.7149 53.5923 46.3961 53.288 45.9596C53.2017 45.6168 52.8884 45.7266 52.8802 45.7192C52.8108 45.5888 51.4641 44.1618 51.1622 43.9053C50.9986 43.7649 50.9724 43.9603 50.889 43.8848C50.1486 43.2155 49.4098 42.535 48.6641 41.8329C47.4778 40.7167 46.3133 39.5736 45.1654 38.3924C45.1337 38.357 45.3068 38.2818 45.2305 38.2001C44.1801 37.0689 43.3127 36.5257 42.3116 35.734C41.3029 34.9352 40.6047 34.204 40.2705 33.4664C39.5465 32.8223 38.6436 31.773 38.126 31.1668C37.606 30.5583 37.2905 30.7275 37.2357 30.6844C35.5087 29.3338 34.7306 28.3257 33.1068 26.7486C32.3352 25.9981 30.7482 24.572 29.872 23.8031C29.1807 23.1967 28.8281 22.7583 28.1745 22.2187C28.0861 22.1457 28.0675 22.3352 28.038 22.3157C27.2219 21.8033 27.8066 21.8421 27.7086 21.6605C27.3535 21.002 27.1196 20.6094 26.1537 19.8699C25.934 19.7019 24.9684 19.5358 24.5758 19.2168C24.064 18.7997 24.3739 18.825 23.8323 18.3906C23.7862 18.3535 23.7151 18.448 23.4049 18.1566C21.9554 16.7979 20.4044 15.2971 18.857 13.9298C18.6444 13.7414 18.7909 14.1229 18.4826 13.854C17.045 12.6004 15.4806 11.2157 14.1368 9.95171C14.1197 9.93557 14.1044 9.92053 14.0906 9.9065C13.8312 9.64382 14.1037 9.71947 14.055 9.62951C13.7416 9.05239 12.8643 8.76122 12.7518 8.6761C10.0646 6.6672 8.21588 4.73078 5.35752 3.12596C5.18885 3.02461 3.87955 2.70971 3.53981 2.26655C3.5297 2.23748 3.10481 1.73748 2.75739 1.92534C2.75088 1.94092 2.87851 2.11189 2.60824 2.07856C2.47802 2.07784 2.52516 2.09498 2.49091 2.11869C2.45293 2.16861 2.44912 2.08746 2.30585 2.30233C2.22445 2.38912 1.86348 2.91124 2.27656 3.64592C2.28822 3.69222 3.15128 4.71333 2.94007 5.2761C2.90501 5.36464 2.46456 5.43333 3.03633 6.32172C3.14903 6.49287 3.10402 6.1262 3.34875 6.5801C3.72864 7.28227 4.06208 8.30702 4.66635 9.1279C4.77292 9.2744 5.35111 9.80803 5.43086 10.4438C5.4424 10.5417 5.23646 10.4478 5.36484 10.7346C5.98271 12.1114 6.8263 13.4664 7.49835 14.8589C7.74408 15.364 7.40092 15.2202 7.62988 15.7465C7.7048 15.9183 7.81208 16.1457 7.93901 16.3941C8.18426 16.8781 8.52407 17.4691 8.78223 17.7704C9.17438 18.2321 9.15385 17.4828 9.63756 18.2448C11.733 21.5337 13.6082 24.9112 15.7538 28.162C16.0725 28.6434 15.9115 28.1737 16.3917 28.878C18.1439 31.4764 21.4245 35.7607 22.9118 38.0296C24.1003 39.8604 22.2514 37.8345 23.2278 39.1863C23.6992 39.8352 24.5826 40.2313 24.7159 40.3679C26.0359 41.7171 26.7577 42.8052 27.9635 43.9919C28.2101 44.2325 28.1003 43.8708 28.3083 44.0755C29.0317 44.7847 29.727 45.5791 30.4297 46.2141C30.751 46.503 30.781 46.353 31.0635 46.6227C31.7402 47.2622 32.332 47.836 32.9703 48.4896C33.0284 48.5488 32.492 48.3376 33.0269 48.7605C33.9051 49.4494 34.9759 50.332 36.1258 50.7945C36.4758 50.9307 36.5985 50.6745 37.2145 51.1709C37.3275 51.2576 37.0936 51.4786 37.6757 51.5415C37.7551 51.5499 37.8483 51.5546 37.9567 51.5534C38.13 51.5778 39.5681 51.5388 40.1951 51.8186C40.3646 51.904 40.8214 52.2161 41.2314 52.1413C41.2843 52.13 41.0609 51.9862 41.385 51.946C42.5265 51.7996 43.6995 51.4232 44.7502 50.7575C45.0266 50.5792 44.525 50.6851 44.9315 50.4225C46.054 49.6975 47.3787 48.5315 48.3478 47.4808C48.7056 47.0947 48.5733 47.4593 48.6098 47.4401C49.1957 47.1274 49.1732 46.6179 49.2812 46.4481C49.9726 45.3603 50.6532 44.619 51.2568 43.5684C51.4235 43.2761 51.1652 43.3977 51.1882 43.3334C51.4266 42.6759 51.4032 43.2596 51.6539 42.8997C52.356 41.8874 52.9998 40.6605 53.542 39.5246C53.7403 39.1078 53.3476 39.492 53.5265 39.1189C54.5636 36.9404 55.5728 34.6216 56.5454 32.4351C56.5609 32.4002 56.5764 32.3654 56.5919 32.3306C56.7786 31.9112 56.8024 32.2309 56.8672 32.1537C57.3169 31.6254 57.3793 30.6121 57.4291 30.3975C57.6627 29.4064 57.9132 29.084 58.1949 28.2406C59.5778 24.12 61.2241 19.0198 62.261 15.0566C63.0772 11.9659 63.7154 9.25929 64.2182 6.52208C64.3835 5.6055 64.5436 4.67915 64.5895 3.8638C64.6 3.662 64.6009 3.47416 64.5896 3.32428C64.5844 3.18624 64.537 3.06382 64.5781 3.16751C64.6009 3.21464 64.6752 3.34766 64.844 3.46895C65.011 3.59356 65.2303 3.6426 65.3211 3.64401C65.5234 3.64191 65.414 3.63096 65.2982 3.69278C65.1261 3.77563 65.3818 3.85849 65.2335 3.93769C62.894 5.44061 60.277 8.16653 57.9166 10.6386C57.8321 10.7289 57.7469 10.8203 57.661 10.9128C57.4602 11.1287 57.8823 10.9421 57.5627 11.2949C56.8947 12.0335 56.0468 12.9204 55.3268 13.61C54.9714 13.9515 55.3115 13.3647 54.9549 13.7118C54.148 14.495 53.3106 15.3838 52.5337 16.2733C52.2117 16.6432 52.8449 16.2189 52.4151 16.6914C49.4467 19.9624 46.5958 23.1916 43.4472 26.3831C43.2335 26.5996 42.7843 26.5533 42.4051 27.0868C42.4486 27.1909 42.5399 27.2683 42.607 27.3565C38.3866 32.2045 34.0974 36.9058 29.843 41.7508C29.6633 41.9555 30.1192 41.7283 29.7719 42.1256C27.7678 44.4183 25.8658 46.685 23.6748 48.9111C23.4579 49.1319 23.3046 48.7875 22.7453 49.5098C22.6462 49.6381 21.7806 50.7038 21.6045 51.0198C21.5813 51.0635 21.8659 50.979 21.5795 51.3159C19.9112 53.2735 18.1196 55.2828 16.3646 57.1579C16.0812 57.4602 16.2418 57.0158 16.0388 57.2302C14.5987 58.7532 13.2068 60.5561 11.7802 61.9666C10.8251 62.9101 10.928 62.3432 10.2438 62.6914C10.1472 62.7407 9.59947 63.3628 9.44436 63.2851C9.05284 63.0914 8.96599 62.4849 8.5176 62.3143C8.42147 62.277 7.77344 63.1843 8.02665 62.5341C8.04487 62.4891 8.51313 61.83 8.58281 61.6281C8.63162 61.4878 8.33956 61.5637 8.47075 61.3048C8.60197 61.046 8.91287 60.9061 9.15598 60.4993C9.39814 60.092 9.11701 60.1194 9.71004 59.4ZM35.7826 28.4356C35.3603 27.8091 34.87 28.1685 35.5463 28.6136C35.5796 28.6346 35.8046 28.4676 35.7826 28.4356ZM27.586 54.0463C28.4195 54.6144 29.1521 54.4519 28.5857 54.0439C28.009 53.6315 27.3352 53.8743 27.586 54.0463ZM18.1974 50.729C19.1606 51.3429 19.6342 50.6184 18.4647 50.3317C18.3955 50.3141 18.1404 50.6929 18.1974 50.729ZM12.3418 60.1452C12.3292 60.1477 11.9332 60.5927 11.9299 60.6086C11.8657 60.9727 12.6573 60.0828 12.3418 60.1452ZM9.07989 46.8957C9.351 47.1587 10.3087 47.4729 9.9817 47.1569C9.73042 46.9098 8.74693 46.5725 9.07989 46.8957ZM7.40911 2.60226C7.4027 2.58644 7.0553 2.34613 7.03622 2.39459C6.96751 2.54209 7.48583 2.83417 7.40911 2.60226ZM5.86044 41.7175C5.69513 41.4729 5.49369 41.2857 5.26914 41.1505L5.31301 41.165C3.52097 40.7522 2.58832 40.2469 5.04987 40.5037C5.54917 40.5803 3.93958 40.5998 4.57207 40.7332C4.85691 40.7912 5.11831 40.8238 5.37167 40.8491C5.3799 40.8506 5.4024 40.8582 5.40995 40.8618C6.18477 41.1426 6.71754 41.8765 6.80736 42.746C6.84266 42.9547 5.97042 41.7491 5.85735 41.7149C5.85838 41.7157 5.85941 41.7166 5.86044 41.7175ZM35.9695 27.6221C35.9644 27.6063 35.5412 27.1943 35.5254 27.1902C35.1628 27.1078 36.0151 27.9378 35.9695 27.6221ZM6.76847 17.4658C6.76629 17.4981 7.45082 18.7043 7.48429 18.7283C8.11272 19.1898 6.74322 16.7756 6.76847 17.4658ZM63.9418 55.9898C64.4802 56.4007 64.9497 57.0333 65.0379 57.5958C64.6877 57.0526 64.3158 56.5213 63.9418 55.9898Z" fill="white"/>
</svg>
